<svg width="64" height="64" fill="none" xmlns="http://www.w3.org/2000/svg"><path d="M53.496 10.195h-3.124c-.466 0-.761.296-.761.622v10.102c0 .42.497.637 1.01.637.497 0 1.01-.217 1.01-.637v-3.605h1.74c2.052 0 3.653-.98 3.653-3.529v-.093c0-2.549-1.554-3.497-3.528-3.497zm1.508 3.746c0 1.212-.622 1.787-1.632 1.787H51.63v-3.76h1.74c1.011 0 1.633.574 1.633 1.786v.187zm-18.371.204a15.519 15.519 0 00-11.045-4.576 15.519 15.519 0 00-11.046 4.576.912.912 0 101.29 1.289 13.708 13.708 0 019.755-4.041 13.71 13.71 0 019.757 4.04.91.91 0 001.29 0 .912.912 0 000-1.288z" fill="#15499F"/><path d="M32.872 17.906c-4.017-4.017-10.552-4.017-14.569 0a.911.911 0 101.29 1.29c3.305-3.306 8.684-3.306 11.99 0a.909.909 0 001.29 0 .912.912 0 000-1.29zm-3.702 3.702a5.072 5.072 0 00-7.165 0 .912.912 0 101.29 1.289 3.247 3.247 0 014.586 0 .909.909 0 001.29 0 .911.911 0 000-1.29zm15.695 17.757a14.953 14.953 0 01-1.157-.707l-6.03-4.074a10.989 10.989 0 00-6.174-1.89h-11.07a10.96 10.96 0 00-7.783 3.216 14.775 14.775 0 01-3.624 2.65 2.364 2.364 0 00-1.279 2.105 2.375 2.375 0 002.373 2.372h3.774a.912.912 0 000-1.823H10.12a.55.55 0 01-.253-1.035 16.599 16.599 0 004.07-2.977 9.147 9.147 0 016.497-2.685h2.478v6.697h-3.03a.912.912 0 000 1.823h25c.75 0 1.36-.61 1.36-1.359 0-.96-.528-1.846-1.378-2.313zm-20.128 1.849v-6.697h6.767c1.843 0 3.625.546 5.153 1.578l6.03 4.074c.42.283.856.55 1.3.793a.85.85 0 01.283.252H24.737zm2.259 3.209h-2.817a.912.912 0 000 1.824h2.817a.912.912 0 000-1.824z" fill="#15499F"/><path d="M63.213 43.658l-.288-.478a7.504 7.504 0 00-4.953-3.48l-2.354-.468v-11.93h6.092a2.277 2.277 0 002.274-2.275V7.271a2.277 2.277 0 00-2.274-2.275H43.954a2.277 2.277 0 00-2.275 2.275v6.735a.912.912 0 101.824 0V7.271a.45.45 0 01.45-.451H61.71a.45.45 0 01.451.45v17.757a.452.452 0 01-.45.451H43.953a.452.452 0 01-.452-.45v-5.095a.912.912 0 00-1.823 0v5.094a2.277 2.277 0 002.274 2.275h6.908v10.984l-1.21-.24c-1.67-.332-3.298-1.34-4.378-2.07l-6.03-4.073a13.776 13.776 0 00-7.74-2.37H20.436a13.737 13.737 0 00-9.757 4.032 11.974 11.974 0 01-6.01 3.244l-1.31.274A4.243 4.243 0 000 41.218v8.83a2.67 2.67 0 001.584 2.438L5.216 54.1a6.013 6.013 0 001.66 3.132 6.03 6.03 0 004.277 1.769 6.03 6.03 0 005.82-4.405H47.25a6.01 6.01 0 001.543 2.636 6.009 6.009 0 004.277 1.772c1.615 0 3.134-.63 4.277-1.772a6.009 6.009 0 001.542-2.636h1.73a3.385 3.385 0 003.38-3.38v-4.73c0-.996-.272-1.974-.787-2.828zM52.684 27.301h1.111V38.87l-1.11-.221V27.3zM14.142 55.944a4.197 4.197 0 01-2.988 1.237c-1.129 0-2.19-.44-2.988-1.237A4.232 4.232 0 017.31 51.2l.017-.038a4.076 4.076 0 01.34-.593l.061-.089a3.93 3.93 0 01.076-.1l.06-.077.092-.11.053-.061c.047-.052.095-.103.144-.152l.012-.013.03-.028c.04-.04.083-.081.126-.12l.034-.03c.043-.037.086-.075.13-.11l.012-.01a4.233 4.233 0 015.318.004l.005.005c.048.038.094.078.14.119l.024.021a4.261 4.261 0 01.316.318l.066.076a4.41 4.41 0 01.21.265 4.253 4.253 0 01.112.164 4.232 4.232 0 01-.547 5.3zm41.917 0a4.198 4.198 0 01-2.988 1.237c-1.128 0-2.19-.44-2.987-1.237a4.232 4.232 0 01-.226-5.729l.066-.077a4.197 4.197 0 013.147-1.406 4.197 4.197 0 013.148 1.406l.066.077a4.102 4.102 0 01.306.404l.016.024a4.232 4.232 0 01-.548 5.3zm6.119-4.727a1.56 1.56 0 01-1.558 1.557h-1.501a5.972 5.972 0 00-1.343-3.619l-.016-.02a6.411 6.411 0 00-.16-.188l-.042-.048a6.214 6.214 0 00-.18-.188l-.03-.032a6.012 6.012 0 00-4.277-1.771 6.006 6.006 0 00-4.277 1.771l-.03.031a6.376 6.376 0 00-.18.19l-.04.046c-.054.062-.109.125-.161.189l-.016.02a5.974 5.974 0 00-1.343 3.619H17.2a5.974 5.974 0 00-1.347-3.624l-.012-.014a6.105 6.105 0 00-.17-.199l-.032-.036a6.05 6.05 0 00-1.158-.995 6.044 6.044 0 00-3.329-.995 6.03 6.03 0 00-4.473 1.975c-.02.02-.037.042-.056.063a6.452 6.452 0 00-.32.392l-.04.053c-.114.157-.22.318-.318.483l-.008.014a5.977 5.977 0 00-.138.248l-.004.007a6.01 6.01 0 00-.63 1.938l-2.84-1.263a.846.846 0 01-.502-.772v-8.83a2.41 2.41 0 011.909-2.35l1.309-.275a13.793 13.793 0 006.923-3.737 11.925 11.925 0 018.47-3.5h11.07c2.403 0 4.726.712 6.718 2.057l6.03 4.074c1.21.818 3.05 1.95 5.043 2.347l8.32 1.655a5.677 5.677 0 013.748 2.632l.288.478a3.66 3.66 0 01.525 1.888v4.728z" fill="#15499F"/><path d="M13.11 50.998a2.75 2.75 0 00-1.957-.81 2.75 2.75 0 00-1.957.81 2.75 2.75 0 00-.811 1.957c0 .74.288 1.435.81 1.958a2.75 2.75 0 001.958.81 2.75 2.75 0 001.957-.81 2.771 2.771 0 000-3.915zm-1.29 2.625a.938.938 0 01-.667.277.938.938 0 01-.668-.277.938.938 0 01-.277-.668.94.94 0 01.277-.668.938.938 0 01.668-.276.946.946 0 01.668 1.613zm43.208-2.625a2.75 2.75 0 00-1.958-.81 2.75 2.75 0 00-1.957.81 2.771 2.771 0 000 3.915 2.75 2.75 0 001.957.81 2.75 2.75 0 001.958-.81 2.75 2.75 0 00.81-1.958 2.75 2.75 0 00-.81-1.957zm-1.29 2.625a.938.938 0 01-.668.277.946.946 0 11.668-1.612.938.938 0 01.277.667c0 .253-.098.49-.277.668z" fill="#15499F"/></svg>