<svg width="64" height="50" fill="none" xmlns="http://www.w3.org/2000/svg"><path d="M21.032 25c0-10.732 8.731-19.464 19.463-19.464C51.227 5.536 59.96 14.268 59.96 25s-8.731 19.464-19.464 19.464a19.33 19.33 0 01-11.308-3.62 1.004 1.004 0 011.167-1.633 17.336 17.336 0 0010.141 3.245c9.626 0 17.457-7.83 17.457-17.456S50.122 7.543 40.495 7.543C30.87 7.543 23.04 15.374 23.04 25c0 4.296 1.575 8.425 4.434 11.626a1.004 1.004 0 11-1.496 1.337A19.43 19.43 0 0121.032 25z" fill="#15499F" stroke="#fff" stroke-width=".19"/><path d="M4.451.38h47.732a1.003 1.003 0 110 2.007H4.45a2.351 2.351 0 00-2.349 2.349V35.36a1.004 1.004 0 01-2.007 0V4.736A4.361 4.361 0 014.451.38zm51.54 0h3.558a4.361 4.361 0 014.356 4.356v40.528a4.361 4.361 0 01-4.356 4.356H4.451a4.36 4.36 0 01-4.356-4.355v-6.243a1.004 1.004 0 012.007 0v6.242a2.351 2.351 0 002.35 2.35h55.097a2.351 2.351 0 002.349-2.35V4.736a2.351 2.351 0 00-2.349-2.35h-3.558a1.004 1.004 0 010-2.006z" fill="#15499F" stroke="#fff" stroke-width=".19"/><path d="M40.356 28.333h0l-.02-.001h0a3.287 3.287 0 01-1.774-.614m1.794.615l-1.739-.692m1.739.692c.046.003.093.004.139.003l-.139-.003zm-1.794-.615s0 0 0 0l.055-.078m-.055.078s0 0 0 0l.055-.078m-.055.078a1.276 1.276 0 00-.031-.022l-.004-.002h0a3.344 3.344 0 01-1.365-2.836v-.002h0v-.016h0c.03-.642.243-1.256.617-1.778m.838 4.578a3.25 3.25 0 01-1.36-2.777v-.019c.03-.624.236-1.22.599-1.727m-.077-.055s0 0 0 0l.077.055m-.077-.055s0 0 0 0l.077.055m-.077-.055a3.343 3.343 0 012.857-1.396h.011l.009.001-.006.095m-2.794 1.355l2.639 5.22a3.346 3.346 0 002.718-1.402m-2.563-5.173l.005-.095a3.3 3.3 0 011.777.616m-1.782-.521a3.205 3.205 0 011.727.599m-1.727-.599h-.006l-.014-.001 1.746.6m.056-.078s0 0 0 0l-.056.078m.056-.078s0 0 0 0l-.056.078m.056-.078a3.34 3.34 0 011.397 2.857v.001l-.001.01v.009l-.095-.005.095.004a3.308 3.308 0 01-.615 1.776m0 0l-.077-.055.077.055s0 0 0 0zm3.286-8.11h0a6.954 6.954 0 016.633.53 6.956 6.956 0 013.173 5.85c0 .554-.45 1.004-1.004 1.004H45.7l-.018.072a5.29 5.29 0 01-.496 1.275l-.022.041.019.043 1.488 3.362h0a6.956 6.956 0 01-.532 6.634 6.953 6.953 0 01-5.847 3.173c-.554 0-1.004-.45-1.004-1.004v-9.601l-.072-.018a5.273 5.273 0 01-1.278-.498l-.04-.023-.044.02-3.36 1.488h0a6.96 6.96 0 01-6.632-.53l-.052.08.051-.08a6.954 6.954 0 01-3.173-5.85c0-.554.45-1.003 1.004-1.003h.095v0h9.503l.018-.072c.11-.446.276-.875.497-1.277l.023-.042-.02-.043-1.488-3.36h0a6.955 6.955 0 01.532-6.634l-.08-.052.08.052A6.953 6.953 0 0140.7 9.19c.554 0 1.003.45 1.003 1.003v9.603l.073.018c.444.109.872.275 1.275.496l.04.022.044-.019 3.363-1.489zM28.955 28.96l.052-.08-.052.08a4.953 4.953 0 004.724.377s0 0 0 0l2.44-1.08.108-.048-.069-.095a5.357 5.357 0 01-.932-2.239l-.013-.079h-8.419l.027.116a4.954 4.954 0 002.134 3.048zm10.742-17.545v-.12l-.116.028a4.952 4.952 0 00-3.046 2.133 4.956 4.956 0 00-.378 4.726s0 0 0 0l1.08 2.44.047.107.095-.068a5.359 5.359 0 012.239-.932l.08-.014v-8.3zm1.597 27.166v.12l.117-.027a4.952 4.952 0 003.045-2.134 4.956 4.956 0 00.38-4.726s0 0 0 0l-1.081-2.44-.048-.108-.095.069a5.363 5.363 0 01-2.238.933l-.08.013v8.3zm4.47-14.46l.094-.008v.087h8.34l-.027-.116a4.954 4.954 0 00-2.134-3.047 4.955 4.955 0 00-4.725-.379L44.87 21.74l-.107.047.068.095a5.36 5.36 0 01.933 2.24zM6.021 7.63h11.424a1.003 1.003 0 110 2.006H6.021a1.004 1.004 0 010-2.007zm0 16.367h11.424a1.003 1.003 0 110 2.007H6.021a1.004 1.004 0 010-2.007zm0 10.911h11.424a1.003 1.003 0 110 2.007H6.021a1.004 1.004 0 010-2.007zm0-5.456h11.424a1.003 1.003 0 110 2.007H6.021a1.004 1.004 0 010-2.007zm0 10.912h11.424a1.003 1.003 0 110 2.007H6.021a1.004 1.004 0 010-2.007zM16.2 18.541h1.245a1.003 1.003 0 110 2.007h-1.244a1.004 1.004 0 010-2.007zm-10.179 0h6.518a1.004 1.004 0 010 2.007H6.02a1.004 1.004 0 010-2.007zm0-5.456h11.424a1.003 1.003 0 110 2.007H6.021a1.004 1.004 0 010-2.007z" fill="#15499F" stroke="#fff" stroke-width=".19"/></svg>