<svg width="112" height="80" fill="none" xmlns="http://www.w3.org/2000/svg"><path fill="#fff" d="M0 0h112v80H0z"/><path d="M29.299 33.383c-1.44 0-2.745-.353-3.915-1.058a7.676 7.676 0 01-2.723-2.903c-.66-1.215-.99-2.55-.99-4.005 0-1.485.346-2.865 1.035-4.14.706-1.274 1.643-2.287 2.813-3.037a6.996 6.996 0 013.87-1.147c1.365 0 2.61.307 3.735.922 1.125.6 1.672 1.695 1.642 3.285H32.99c.045-.945-.33-1.598-1.125-1.957-.78-.36-1.643-.54-2.588-.54-1.05 0-2.017.314-2.902.944-.885.616-1.59 1.44-2.115 2.476a7.029 7.029 0 00-.788 3.262c0 1.11.248 2.137.743 3.082a6.102 6.102 0 002.093 2.273c.885.555 1.89.832 3.015.832a5.99 5.99 0 002.902-.72 5.395 5.395 0 002.138-2.047l1.507 1.035a6.832 6.832 0 01-2.835 2.588 8.418 8.418 0 01-3.735.855zm19.998-8.416c1.44.87 2.16 2.116 2.16 3.736 0 .945-.27 1.807-.81 2.587-.54.765-1.304 1.305-2.294 1.62-.645.21-1.523.315-2.633.315-1.545 0-2.655-.038-3.33-.113l-1.373-.157V17.318h5.085c.75 0 1.38.097 1.89.292.87.33 1.553.84 2.048 1.53.495.69.742 1.485.742 2.385 0 1.38-.607 2.378-1.822 2.992a3.92 3.92 0 01-.473.18c.09 0 .218.03.383.09.18.06.323.12.428.18zm-6.434-5.894v4.904h3.217c.855 0 1.545-.217 2.07-.652.525-.435.788-1.065.788-1.89 0-.72-.218-1.275-.653-1.665-.435-.405-1.065-.637-1.89-.697h-3.533zm3.082 12.442c1.17 0 2.078-.24 2.722-.72.645-.48.968-1.178.968-2.093 0-.885-.3-1.605-.9-2.16-.585-.555-1.417-.832-2.498-.832h-3.375v5.692l1.62.068 1.463.045zm17.785 1.98c-1.484-.015-2.82-.36-4.005-1.035a7.595 7.595 0 01-2.767-2.79c-.66-1.185-.99-2.52-.99-4.005v-.652c0-1.426.337-2.73 1.012-3.916a7.667 7.667 0 012.79-2.835 7.433 7.433 0 013.87-1.057c1.41 0 2.7.353 3.87 1.058 1.17.69 2.1 1.634 2.79 2.834.69 1.185 1.035 2.49 1.035 3.915v.653c0 1.485-.337 2.828-1.012 4.027a7.22 7.22 0 01-2.722 2.813c-1.156.675-2.445 1.005-3.87.99zm-.067-1.71c1.095 0 2.085-.262 2.97-.788a5.8 5.8 0 002.093-2.204c.51-.93.764-1.973.764-3.128v-.652a6.075 6.075 0 00-.787-3.038 5.869 5.869 0 00-2.138-2.228 5.436 5.436 0 00-2.947-.832c-1.065 0-2.04.277-2.925.832a5.925 5.925 0 00-2.115 2.228 6.215 6.215 0 00-.765 3.037v.653c0 1.155.255 2.198.765 3.128a5.8 5.8 0 002.092 2.204c.9.526 1.898.788 2.993.788zm25.676 1.238h-1.845V22.83l.112-1.485-.877 1.17-7.672 9.225-1.306 1.283h-.945v-15.48h1.823l-.023 11.79-.022.63.315-.563 9.653-12.06h.787v15.683zM83.242 16.35c-1.096 0-1.943-.323-2.543-.968-.585-.66-.862-1.507-.832-2.542h1.8c0 .6.127 1.08.382 1.44.255.345.66.518 1.215.518 1.05 0 1.553-.653 1.508-1.958h1.822c.015 1.11-.277 1.973-.877 2.588-.6.614-1.425.922-2.475.922zM27.084 62.495c-1.485-.015-2.82-.36-4.005-1.035a7.595 7.595 0 01-2.767-2.79c-.66-1.185-.99-2.52-.99-4.005v-.652c0-1.425.338-2.73 1.012-3.916a7.667 7.667 0 012.79-2.834 7.433 7.433 0 013.87-1.058c1.41 0 2.7.352 3.87 1.058 1.17.69 2.1 1.635 2.79 2.834.69 1.185 1.035 2.49 1.035 3.916v.652c0 1.485-.337 2.828-1.012 4.028a7.22 7.22 0 01-2.723 2.812c-1.155.675-2.445 1.005-3.87.99zm-.067-1.71c1.095 0 2.085-.262 2.97-.787a5.8 5.8 0 002.093-2.206c.51-.93.764-1.972.764-3.127v-.652a6.075 6.075 0 00-.787-3.038 5.869 5.869 0 00-2.138-2.227 5.436 5.436 0 00-2.947-.833c-1.065 0-2.04.278-2.925.833a5.925 5.925 0 00-2.115 2.227 6.215 6.215 0 00-.765 3.038v.652c0 1.155.255 2.197.765 3.127a5.8 5.8 0 002.093 2.206c.9.525 1.897.787 2.992.787zm19.438.585c-1.53-.12-2.835-.517-3.915-1.192-1.065-.69-1.875-1.553-2.43-2.588a6.959 6.959 0 01-.81-3.263c0-1.14.27-2.22.81-3.24.555-1.035 1.365-1.89 2.43-2.565 1.08-.69 2.385-1.094 3.915-1.215v-1.35h1.71v1.35c1.53.12 2.835.526 3.915 1.215 1.08.675 1.89 1.53 2.43 2.566a6.68 6.68 0 01.833 3.24c0 1.14-.278 2.227-.833 3.262-.54 1.035-1.35 1.897-2.43 2.587-1.08.675-2.385 1.073-3.915 1.193v1.373h-1.71V61.37zm0-12.33c-1.155.105-2.145.42-2.97.945-.825.51-1.447 1.148-1.867 1.913a5.12 5.12 0 00-.608 2.43c0 .854.203 1.664.608 2.43.42.764 1.042 1.41 1.867 1.934.825.51 1.815.825 2.97.946V49.04zm1.71 10.598c1.17-.12 2.168-.435 2.993-.945.825-.526 1.44-1.17 1.845-1.935a4.98 4.98 0 00.63-2.43 4.97 4.97 0 00-.63-2.43c-.405-.766-1.02-1.403-1.845-1.913-.825-.525-1.823-.84-2.993-.945v10.598zM73.4 62.023h-1.845V51.83l.113-1.485-.878 1.17-7.672 9.225-1.305 1.282h-.945v-15.48h1.822l-.022 11.79-.023.63.315-.562 9.653-12.06h.787v15.682zm13.252.36c-1.44 0-2.745-.353-3.915-1.058a7.676 7.676 0 01-2.722-2.903c-.66-1.214-.99-2.55-.99-4.005 0-1.485.344-2.864 1.034-4.14.706-1.275 1.643-2.287 2.813-3.037a6.996 6.996 0 013.87-1.148c1.365 0 2.61.308 3.735.923 1.125.6 1.672 1.695 1.642 3.285h-1.777c.045-.945-.33-1.597-1.125-1.957-.78-.36-1.642-.54-2.588-.54-1.05 0-2.017.315-2.902.945-.885.614-1.59 1.44-2.115 2.474a7.029 7.029 0 00-.787 3.263c0 1.11.247 2.138.742 3.083a6.102 6.102 0 002.093 2.272c.885.555 1.89.832 3.014.832a5.99 5.99 0 002.903-.72 5.395 5.395 0 002.138-2.047l1.507 1.035a6.832 6.832 0 01-2.835 2.588 8.418 8.418 0 01-3.735.855z" fill="#15499F"/></svg>