<svg width="40" height="40" fill="none" xmlns="http://www.w3.org/2000/svg"><path fill="#fff" d="M0 0h40v40H0z"/><path d="M28.673 24.876c0-.083-.083-.083-.083-.166-.332-.664-1.08-1.495-2.076-2.408-.498-.415-.747-.747-.913-.913-.25-.332-.25-.581-.166-.913.083-.25.415-.664.996-1.412.332-.415.498-.664.747-.913 1.246-1.66 1.827-2.74 1.66-3.238l-.082-.083c-.083-.083-.166-.166-.332-.166-.166-.083-.415-.083-.665 0h-3.736l-.083.083c-.083.083-.083.083-.083.166-.332.913-.747 1.66-1.162 2.49-.249.416-.498.831-.747 1.163-.25.332-.415.581-.581.748-.166.166-.332.248-.415.415-.084.083-.25.166-.25.083-.083 0-.166 0-.166-.083l-.249-.25c-.083-.082-.083-.249-.166-.415v-4.151c0-.083-.083-.249-.083-.332l-.249-.249c-.083-.083-.249-.083-.332-.166A7.449 7.449 0 0017.963 14c-1.329 0-2.242.083-2.574.25-.166.082-.332.165-.415.331-.166.166-.166.25-.083.25.415.082.747.248.913.497l.083.166c.083.083.083.25.166.498.083.25.083.499.083.83v1.33c0 .414-.083.663-.083.912 0 .25-.083.416-.166.498-.083.167-.083.25-.166.25 0 0 0 .083-.083.083s-.166.083-.332.083c-.083 0-.249-.083-.332-.166a1 1 0 01-.415-.416c-.166-.166-.332-.415-.498-.747-.166-.332-.415-.664-.582-1.162l-.165-.332c-.084-.166-.25-.498-.416-.913-.166-.416-.332-.748-.498-1.163a1.146 1.146 0 00-.249-.332h-.083s-.083-.083-.166-.083-.166-.083-.249-.083H8.664c-.332 0-.498.083-.581.166L8 14.83v.166c0 .083 0 .166.083.332.415.997.913 1.993 1.411 2.99.499.912.997 1.743 1.329 2.324.415.581.747 1.162 1.162 1.66.415.498.664.83.747.997l.332.332.25.249c.165.166.415.415.747.664.332.249.747.498 1.162.747.415.25.913.415 1.411.581.582.166 1.08.25 1.578.166h1.245a.754.754 0 00.581-.249l.083-.083c0-.083.083-.083.083-.166v-.332c0-.332 0-.581.083-.83.083-.25.083-.415.166-.581.084-.166.166-.25.25-.332l.166-.166h.083c.166-.084.415 0 .58.166.25.166.499.415.665.664.166.249.415.498.747.83.332.332.581.581.747.664l.25.166c.165.083.332.166.58.25.25.082.416.082.582.082l2.822-.083c.25 0 .499-.083.665-.166.166-.083.249-.166.249-.332v-.332c-.166-.166-.166-.249-.166-.332z" fill="#478ECC"/></svg>