<svg width="64" height="64" fill="none" xmlns="http://www.w3.org/2000/svg"><path d="M9.284 26.84h11.992a.8.8 0 000-1.6H9.284a.8.8 0 000 1.6zM30.42 37.407h6.806a.8.8 0 100-1.6h-6.807a.8.8 0 000 1.6zM9.284 33.14h11.992a.8.8 0 000-1.6H9.284a.8.8 0 000 1.6zm0 6.298h11.992a.8.8 0 000-1.6H9.284a.8.8 0 000 1.6zm0 6.299h11.992a.8.8 0 000-1.6H9.284a.8.8 0 000 1.6zm0 6.3h11.992a.8.8 0 000-1.6H9.284a.8.8 0 000 1.6zM30.42 43.58h6.806a.8.8 0 100-1.6h-6.807a.8.8 0 000 1.6zm.6 4.571h-.6a.8.8 0 100 1.6h.6a.8.8 0 000-1.6zm-.6-16.916h6.806a.8.8 0 100-1.6h-6.807a.8.8 0 000 1.6zm0-6.172h6.806a.8.8 0 100-1.6h-6.807a.8.8 0 000 1.6zM9.284 20.541h11.992a.8.8 0 000-1.6H9.284a.8.8 0 100 1.6z" fill="#15499F" stroke="#15499F" stroke-width=".1"/><mask id="path-12-outside-1" maskUnits="userSpaceOnUse" x="2.19" y=".25" width="59" height="63" fill="#000"><path fill="#fff" d="M2.19.25h59v63h-59z"/><path d="M53.603 44.648h-2.332a.907.907 0 01-.906-.906.746.746 0 00-.041-.245V41.61a6.237 6.237 0 002.184-4.742V33.11a6.257 6.257 0 00-6.25-6.25h-.068a6.212 6.212 0 00-3.21.89v-9.732a.75.75 0 00-.75-.75H27.37v-4.606a.75.75 0 00-.75-.75h-2.445V6.44a.75.75 0 00-.75-.75h-7.33V2a.75.75 0 10-1.5 0v3.689h-7.46a.75.75 0 00-.75.75v5.473H3.94a.75.75 0 00-.75.75v44.693a.75.75 0 00.75.75h27.7V62a.75.75 0 00.75.75h27.67a.75.75 0 00.75-.75V51.854a7.214 7.214 0 00-7.207-7.206zM7.885 7.188h14.79v4.724H7.885V7.19zM25.87 56.606H4.69V13.413h21.18v43.192zM46.258 28.36a4.755 4.755 0 014.75 4.75v3.757a4.755 4.755 0 01-4.75 4.75h-.068a4.755 4.755 0 01-4.75-4.75V33.11a4.756 4.756 0 014.75-4.75h.068zm-.097 20.555h.298l1.307 7.518-1.563 1.825-1.515-1.813 1.473-7.53zm-.731-2.767h1.59l-.435 1.267h-.721l-.434-1.267zm-.714-1.5l-1.079-1.212v-.866a6.212 6.212 0 002.553.547h.068c.885 0 1.76-.188 2.565-.552v1.073l-1.055 1.01h-3.052zM27.37 56.605V18.768h14.11v10.24a6.222 6.222 0 00-1.54 4.102v3.757a6.238 6.238 0 002.198 4.753v1.95a.74.74 0 00-.02.173.907.907 0 01-.906.905h-2.366a7.214 7.214 0 00-7.207 7.207v4.75H27.37zm31.94 4.645H33.14v-9.396a5.713 5.713 0 015.706-5.706h2.366a2.401 2.401 0 001.945-.996l.562.632.996 2.709-1.567 8.015a.749.749 0 00.16.625l2.313 2.768a.749.749 0 00.57.269h.005a.75.75 0 00.57-.263l2.37-2.767a.75.75 0 00.168-.616l-1.434-8.249.85-2.462.641-.613a2.402 2.402 0 001.877.948h2.365a5.713 5.713 0 015.707 5.706v9.396z"/></mask><path d="M53.603 44.648h-2.332a.907.907 0 01-.906-.906.746.746 0 00-.041-.245V41.61a6.237 6.237 0 002.184-4.742V33.11a6.257 6.257 0 00-6.25-6.25h-.068a6.212 6.212 0 00-3.21.89v-9.732a.75.75 0 00-.75-.75H27.37v-4.606a.75.75 0 00-.75-.75h-2.445V6.44a.75.75 0 00-.75-.75h-7.33V2a.75.75 0 10-1.5 0v3.689h-7.46a.75.75 0 00-.75.75v5.473H3.94a.75.75 0 00-.75.75v44.693a.75.75 0 00.75.75h27.7V62a.75.75 0 00.75.75h27.67a.75.75 0 00.75-.75V51.854a7.214 7.214 0 00-7.207-7.206zM7.885 7.188h14.79v4.724H7.885V7.19zM25.87 56.606H4.69V13.413h21.18v43.192zM46.258 28.36a4.755 4.755 0 014.75 4.75v3.757a4.755 4.755 0 01-4.75 4.75h-.068a4.755 4.755 0 01-4.75-4.75V33.11a4.756 4.756 0 014.75-4.75h.068zm-.097 20.555h.298l1.307 7.518-1.563 1.825-1.515-1.813 1.473-7.53zm-.731-2.767h1.59l-.435 1.267h-.721l-.434-1.267zm-.714-1.5l-1.079-1.212v-.866a6.212 6.212 0 002.553.547h.068c.885 0 1.76-.188 2.565-.552v1.073l-1.055 1.01h-3.052zM27.37 56.605V18.768h14.11v10.24a6.222 6.222 0 00-1.54 4.102v3.757a6.238 6.238 0 002.198 4.753v1.95a.74.74 0 00-.02.173.907.907 0 01-.906.905h-2.366a7.214 7.214 0 00-7.207 7.207v4.75H27.37zm31.94 4.645H33.14v-9.396a5.713 5.713 0 015.706-5.706h2.366a2.401 2.401 0 001.945-.996l.562.632.996 2.709-1.567 8.015a.749.749 0 00.16.625l2.313 2.768a.749.749 0 00.57.269h.005a.75.75 0 00.57-.263l2.37-2.767a.75.75 0 00.168-.616l-1.434-8.249.85-2.462.641-.613a2.402 2.402 0 001.877.948h2.365a5.713 5.713 0 015.707 5.706v9.396z" fill="#15499F"/><path d="M53.603 44.648h-2.332a.907.907 0 01-.906-.906.746.746 0 00-.041-.245V41.61a6.237 6.237 0 002.184-4.742V33.11a6.257 6.257 0 00-6.25-6.25h-.068a6.212 6.212 0 00-3.21.89v-9.732a.75.75 0 00-.75-.75H27.37v-4.606a.75.75 0 00-.75-.75h-2.445V6.44a.75.75 0 00-.75-.75h-7.33V2a.75.75 0 10-1.5 0v3.689h-7.46a.75.75 0 00-.75.75v5.473H3.94a.75.75 0 00-.75.75v44.693a.75.75 0 00.75.75h27.7V62a.75.75 0 00.75.75h27.67a.75.75 0 00.75-.75V51.854a7.214 7.214 0 00-7.207-7.206zM7.885 7.188h14.79v4.724H7.885V7.19zM25.87 56.606H4.69V13.413h21.18v43.192zM46.258 28.36a4.755 4.755 0 014.75 4.75v3.757a4.755 4.755 0 01-4.75 4.75h-.068a4.755 4.755 0 01-4.75-4.75V33.11a4.756 4.756 0 014.75-4.75h.068zm-.097 20.555h.298l1.307 7.518-1.563 1.825-1.515-1.813 1.473-7.53zm-.731-2.767h1.59l-.435 1.267h-.721l-.434-1.267zm-.714-1.5l-1.079-1.212v-.866a6.212 6.212 0 002.553.547h.068c.885 0 1.76-.188 2.565-.552v1.073l-1.055 1.01h-3.052zM27.37 56.605V18.768h14.11v10.24a6.222 6.222 0 00-1.54 4.102v3.757a6.238 6.238 0 002.198 4.753v1.95a.74.74 0 00-.02.173.907.907 0 01-.906.905h-2.366a7.214 7.214 0 00-7.207 7.207v4.75H27.37zm31.94 4.645H33.14v-9.396a5.713 5.713 0 015.706-5.706h2.366a2.401 2.401 0 001.945-.996l.562.632.996 2.709-1.567 8.015a.749.749 0 00.16.625l2.313 2.768a.749.749 0 00.57.269h.005a.75.75 0 00.57-.263l2.37-2.767a.75.75 0 00.168-.616l-1.434-8.249.85-2.462.641-.613a2.402 2.402 0 001.877.948h2.365a5.713 5.713 0 015.707 5.706v9.396z" stroke="#15499F" stroke-width=".2" mask="url(#path-12-outside-1)"/><path d="M55.31 51.552h-3.552a.8.8 0 000 1.6h3.552a.8.8 0 000-1.6z" fill="#15499F" stroke="#15499F" stroke-width=".1"/></svg>