<svg width="64" height="64" fill="none" xmlns="http://www.w3.org/2000/svg"><path d="M28.669 43.323h0c.186-.186.444-.293.706-.293.262 0 .52.107.706.293h0c.186.185.293.444.293.706 0 .262-.107.52-.293.706h0a1.002 1.002 0 01-1.412 0h0a1.004 1.004 0 01-.293-.706c0-.263.107-.52.293-.706zm24.719 6.555h0a1.006 1.006 0 01-.293-.706 1.003 1.003 0 01.999-.999c.262 0 .52.107.706.293h0c.186.185.293.444.293.706 0 .262-.108.52-.293.706h0a1.006 1.006 0 01-.706.293 1.01 1.01 0 01-.706-.293z" fill="#15499F" stroke="#fff" stroke-width=".19"/><mask id="path-3-inside-1" fill="#fff"><path d="M58.906 33.094h-4.812v-9.176a5.486 5.486 0 00-4.29-5.328l-3.574-.782a5.725 5.725 0 002.008-4.355V9.738A5.744 5.744 0 0042.5 4a5.744 5.744 0 00-5.738 5.738v3.715c0 1.739.778 3.298 2.003 4.351l-3.574.784a5.487 5.487 0 00-4.285 5.327v4.804H25c-.604 0-1.094.49-1.094 1.093v3.282H16.25V30.03h4.594c.604 0 1.093-.49 1.093-1.093V17.124c0-.604-.49-1.094-1.093-1.094H5.094C4.49 16.03 4 16.52 4 17.124v11.813c0 .604.49 1.093 1.094 1.093h4.593v3.063H5.095c-.604 0-1.094.49-1.094 1.093v5.25c0 .605.49 1.094 1.094 1.094h3.718v18.375c0 .604.49 1.094 1.094 1.094h44.188c.604 0 1.093-.49 1.093-1.094v-5.36a1.094 1.094 0 00-2.187 0v4.267H11v-12.69h14a1.094 1.094 0 000-2.187H11V40.53h42v4.266a1.094 1.094 0 002.188 0V40.53h3.718c.604 0 1.094-.49 1.094-1.093v-5.25c0-.605-.49-1.094-1.094-1.094zM38.95 12.678h1.505c2.02 0 3.95-.588 5.596-1.682v2.457a3.555 3.555 0 01-3.551 3.55 3.555 3.555 0 01-3.55-3.55v-.774zm3.55 6.513c.34 0 .674-.031.998-.088l-1.011 2.278-1.015-2.283c.334.06.677.093 1.028.093zm0-13.003c1.494 0 2.775.928 3.298 2.238a7.889 7.889 0 01-5.343 2.065H38.95v-.753a3.555 3.555 0 013.55-3.55zm-9.406 17.727a3.286 3.286 0 012.566-3.19l3.774-.828 2.053 4.622a1.094 1.094 0 002 0l2.052-4.622 3.799.83a3.285 3.285 0 012.568 3.19v9.177H40.094v-3.282c0-.604-.49-1.093-1.094-1.093h-5.906v-4.804zm-7 6.991h11.812v2.188H26.094v-2.188zM6.187 18.22H19.75v9.625h-3.517a3.286 3.286 0 00-3.264-2.945 3.286 3.286 0 00-3.264 2.945H6.187V18.22zm5.688 9.961a1.095 1.095 0 012.188 0v4.914h-2.188V28.18zm45.938 10.164H6.187V35.28h51.626v3.063z"/></mask><path d="M58.906 33.094h-4.812v-9.176a5.486 5.486 0 00-4.29-5.328l-3.574-.782a5.725 5.725 0 002.008-4.355V9.738A5.744 5.744 0 0042.5 4a5.744 5.744 0 00-5.738 5.738v3.715c0 1.739.778 3.298 2.003 4.351l-3.574.784a5.487 5.487 0 00-4.285 5.327v4.804H25c-.604 0-1.094.49-1.094 1.093v3.282H16.25V30.03h4.594c.604 0 1.093-.49 1.093-1.093V17.124c0-.604-.49-1.094-1.093-1.094H5.094C4.49 16.03 4 16.52 4 17.124v11.813c0 .604.49 1.093 1.094 1.093h4.593v3.063H5.095c-.604 0-1.094.49-1.094 1.093v5.25c0 .605.49 1.094 1.094 1.094h3.718v18.375c0 .604.49 1.094 1.094 1.094h44.188c.604 0 1.093-.49 1.093-1.094v-5.36a1.094 1.094 0 00-2.187 0v4.267H11v-12.69h14a1.094 1.094 0 000-2.187H11V40.53h42v4.266a1.094 1.094 0 002.188 0V40.53h3.718c.604 0 1.094-.49 1.094-1.093v-5.25c0-.605-.49-1.094-1.094-1.094zM38.95 12.678h1.505c2.02 0 3.95-.588 5.596-1.682v2.457a3.555 3.555 0 01-3.551 3.55 3.555 3.555 0 01-3.55-3.55v-.774zm3.55 6.513c.34 0 .674-.031.998-.088l-1.011 2.278-1.015-2.283c.334.06.677.093 1.028.093zm0-13.003c1.494 0 2.775.928 3.298 2.238a7.889 7.889 0 01-5.343 2.065H38.95v-.753a3.555 3.555 0 013.55-3.55zm-9.406 17.727a3.286 3.286 0 012.566-3.19l3.774-.828 2.053 4.622a1.094 1.094 0 002 0l2.052-4.622 3.799.83a3.285 3.285 0 012.568 3.19v9.177H40.094v-3.282c0-.604-.49-1.093-1.094-1.093h-5.906v-4.804zm-7 6.991h11.812v2.188H26.094v-2.188zM6.187 18.22H19.75v9.625h-3.517a3.286 3.286 0 00-3.264-2.945 3.286 3.286 0 00-3.264 2.945H6.187V18.22zm5.688 9.961a1.095 1.095 0 012.188 0v4.914h-2.188V28.18zm45.938 10.164H6.187V35.28h51.626v3.063z" fill="#15499F" stroke="#fff" stroke-width=".38" mask="url(#path-3-inside-1)"/></svg>