<svg width="16" height="16" fill="none" xmlns="http://www.w3.org/2000/svg"><path fill-rule="evenodd" clip-rule="evenodd" d="M8.39 8.388c.541-.542.989-1.127 1.226-1.602a1.78 1.78 0 00.148-.38l-.48-.48a11.753 11.753 0 01-.222-.226 4.45 4.45 0 01-.356-.416C8.25 4.667 8.08 3.996 8.62 3.39c1.026-1.434 1.716-2.32 2.16-2.759.912-.9 2.4-.78 3.191 0 .383.377.513.507.905.905 2.292 2.294.925 7.035-2.687 10.65-3.612 3.616-8.354 4.984-10.652 2.684a27.79 27.79 0 01-.913-.914c-.772-.816-.889-2.24.006-3.169.425-.442 1.272-1.099 2.768-2.17.548-.485 1.188-.38 1.757-.006.256.168.436.332.776.672l.48.48a1.8 1.8 0 00.38-.148c.473-.237 1.059-.685 1.6-1.227zm-3.278 2.905l-.596-.597a9.321 9.321 0 00-.249-.242c-1.207.87-1.913 1.423-2.198 1.72-.097.1-.08.318.006.408.22.233.508.521.862.862 1.304 1.305 4.902.267 7.837-2.67 2.936-2.94 3.974-6.538 2.682-7.83-.39-.396-.513-.52-.888-.889-.06-.059-.306-.078-.385 0-.308.304-.885 1.039-1.728 2.208l.055.059c.051.053.094.096.188.19l.596.596c1.146 1.147.236 2.966-1.49 4.694-1.725 1.727-3.545 2.638-4.692 1.49z" fill="#15499F"/></svg>