<svg width="70" height="50" fill="none" xmlns="http://www.w3.org/2000/svg"><path fill="#15499F" d="M0 0h70v50H0z"/><path d="M14.14 20.306c-1.153 0-2.197-.282-3.133-.846a6.14 6.14 0 01-2.178-2.322c-.528-.972-.792-2.04-.792-3.204a6.85 6.85 0 01.828-3.312c.564-1.02 1.314-1.83 2.25-2.43a5.597 5.597 0 013.096-.918c1.092 0 2.088.246 2.988.738.9.48 1.338 1.356 1.314 2.628h-1.422c.036-.756-.264-1.278-.9-1.566a4.88 4.88 0 00-2.07-.432c-.84 0-1.614.252-2.322.756-.708.492-1.272 1.152-1.692 1.98a5.623 5.623 0 00-.63 2.61c0 .888.198 1.71.594 2.466a4.882 4.882 0 001.674 1.818c.708.444 1.512.666 2.412.666.84 0 1.614-.192 2.322-.576.72-.384 1.29-.93 1.71-1.638l1.206.828a5.466 5.466 0 01-2.268 2.07 6.734 6.734 0 01-2.988.684zm15.998-6.732c1.152.696 1.728 1.692 1.728 2.988 0 .756-.216 1.446-.648 2.07-.432.612-1.044 1.044-1.836 1.296-.516.168-1.218.252-2.106.252-1.236 0-2.124-.03-2.664-.09l-1.098-.126V7.454h4.068c.6 0 1.104.078 1.512.234.696.264 1.242.672 1.638 1.224.396.552.594 1.188.594 1.908 0 1.104-.486 1.902-1.458 2.394a3.268 3.268 0 01-.378.144c.072 0 .174.024.306.072.144.048.258.096.342.144zM24.99 8.858v3.924h2.574c.684 0 1.236-.174 1.656-.522.42-.348.63-.852.63-1.512 0-.576-.174-1.02-.522-1.332-.348-.324-.852-.51-1.512-.558H24.99zm2.466 9.954c.936 0 1.662-.192 2.178-.576.516-.384.774-.942.774-1.674 0-.708-.24-1.284-.72-1.728-.468-.444-1.134-.666-1.998-.666h-2.7v4.554l1.296.054 1.17.036zm14.228 1.584c-1.188-.012-2.256-.288-3.204-.828a6.076 6.076 0 01-2.214-2.232c-.528-.948-.792-2.016-.792-3.204v-.522c0-1.14.27-2.184.81-3.132a6.133 6.133 0 012.232-2.268 5.946 5.946 0 013.096-.846c1.128 0 2.16.282 3.096.846a6.133 6.133 0 012.232 2.268c.552.948.828 1.992.828 3.132v.522c0 1.188-.27 2.262-.81 3.222a5.776 5.776 0 01-2.178 2.25c-.924.54-1.956.804-3.096.792zm-.054-1.368c.876 0 1.668-.21 2.376-.63a4.64 4.64 0 001.674-1.764c.408-.744.612-1.578.612-2.502v-.522a4.86 4.86 0 00-.63-2.43 4.695 4.695 0 00-1.71-1.782 4.349 4.349 0 00-2.358-.666c-.852 0-1.632.222-2.34.666a4.74 4.74 0 00-1.692 1.782 4.972 4.972 0 00-.612 2.43v.522c0 .924.204 1.758.612 2.502a4.64 4.64 0 001.674 1.764c.72.42 1.518.63 2.394.63zm20.541.99h-1.476v-8.154l.09-1.188-.702.936-6.138 7.38-1.044 1.026h-.756V7.634h1.458l-.018 9.432-.018.504.252-.45 7.722-9.648h.63v12.546zM57.293 6.68c-.876 0-1.554-.258-2.034-.774-.468-.528-.69-1.206-.666-2.034h1.44c0 .48.102.864.306 1.152.204.276.528.414.972.414.84 0 1.242-.522 1.206-1.566h1.458c.012.888-.222 1.578-.702 2.07-.48.492-1.14.738-1.98.738zM12.368 43.396c-1.188-.012-2.256-.288-3.204-.828a6.076 6.076 0 01-2.214-2.232c-.528-.948-.792-2.016-.792-3.204v-.522c0-1.14.27-2.184.81-3.132A6.133 6.133 0 019.2 31.21a5.946 5.946 0 013.096-.846c1.128 0 2.16.282 3.096.846a6.133 6.133 0 012.232 2.268c.552.948.828 1.992.828 3.132v.522c0 1.188-.27 2.262-.81 3.222a5.776 5.776 0 01-2.178 2.25c-.924.54-1.956.804-3.096.792zm-.054-1.368c.876 0 1.668-.21 2.376-.63a4.64 4.64 0 001.674-1.764c.408-.744.612-1.578.612-2.502v-.522a4.86 4.86 0 00-.63-2.43 4.695 4.695 0 00-1.71-1.782 4.349 4.349 0 00-2.358-.666c-.852 0-1.632.222-2.34.666a4.74 4.74 0 00-1.692 1.782 4.972 4.972 0 00-.612 2.43v.522c0 .924.204 1.758.612 2.502a4.64 4.64 0 001.674 1.764c.72.42 1.518.63 2.394.63zm15.55.468c-1.224-.096-2.268-.414-3.132-.954-.852-.552-1.5-1.242-1.944-2.07a5.567 5.567 0 01-.648-2.61c0-.912.216-1.776.648-2.592.444-.828 1.092-1.512 1.944-2.052.864-.552 1.908-.876 3.132-.972v-1.08h1.368v1.08c1.224.096 2.268.42 3.132.972.864.54 1.512 1.224 1.944 2.052.444.816.666 1.68.666 2.592 0 .912-.222 1.782-.666 2.61-.432.828-1.08 1.518-1.944 2.07-.864.54-1.908.858-3.132.954v1.098h-1.368v-1.098zm0-9.864c-.924.084-1.716.336-2.376.756-.66.408-1.158.918-1.494 1.53a4.096 4.096 0 00-.486 1.944c0 .684.162 1.332.486 1.944.336.612.834 1.128 1.494 1.548.66.408 1.452.66 2.376.756v-8.478zm1.368 8.478c.936-.096 1.734-.348 2.394-.756.66-.42 1.152-.936 1.476-1.548a3.98 3.98 0 00.504-1.944 3.98 3.98 0 00-.504-1.944c-.324-.612-.816-1.122-1.476-1.53-.66-.42-1.458-.672-2.394-.756v8.478zm20.188 1.908h-1.476v-8.154l.09-1.188-.702.936-6.138 7.38-1.044 1.026h-.756V30.634h1.458l-.018 9.432-.018.504.252-.45 7.722-9.648h.63v12.546zm10.602.288c-1.152 0-2.196-.282-3.132-.846a6.14 6.14 0 01-2.178-2.322c-.528-.972-.792-2.04-.792-3.204a6.85 6.85 0 01.828-3.312c.564-1.02 1.314-1.83 2.25-2.43a5.597 5.597 0 013.096-.918c1.092 0 2.088.246 2.988.738.9.48 1.338 1.356 1.314 2.628h-1.422c.036-.756-.264-1.278-.9-1.566a4.88 4.88 0 00-2.07-.432c-.84 0-1.614.252-2.322.756-.708.492-1.272 1.152-1.692 1.98a5.623 5.623 0 00-.63 2.61c0 .888.198 1.71.594 2.466a4.882 4.882 0 001.674 1.818c.708.444 1.512.666 2.412.666.84 0 1.614-.192 2.322-.576.72-.384 1.29-.93 1.71-1.638l1.206.828a5.466 5.466 0 01-2.268 2.07 6.734 6.734 0 01-2.988.684z" fill="#fff"/></svg>