<svg width="64" height="64" viewBox="0 0 64 64" fill="none" xmlns="http://www.w3.org/2000/svg">
<path d="M9.2843 26.8405H21.2761C21.4882 26.8405 21.6917 26.7562 21.8417 26.6062C21.9918 26.4562 22.0761 26.2527 22.0761 26.0405C22.0761 25.8284 21.9918 25.6249 21.8417 25.4748C21.6917 25.3248 21.4882 25.2405 21.2761 25.2405H9.2843C9.07213 25.2405 8.86864 25.3248 8.71862 25.4748C8.56859 25.6249 8.4843 25.8284 8.4843 26.0405C8.4843 26.2527 8.56859 26.4562 8.71862 26.6062C8.86864 26.7562 9.07213 26.8405 9.2843 26.8405Z" fill="#15499F" stroke="#15499F" stroke-width="0.1"/>
<path d="M30.4193 37.4074H37.2258C37.438 37.4074 37.6415 37.3231 37.7915 37.1731C37.9415 37.0231 38.0258 36.8196 38.0258 36.6074C38.0258 36.3952 37.9415 36.1918 37.7915 36.0417C37.6415 35.8917 37.438 35.8074 37.2258 35.8074H30.4193C30.2071 35.8074 30.0037 35.8917 29.8536 36.0417C29.7036 36.1918 29.6193 36.3952 29.6193 36.6074C29.6193 36.8196 29.7036 37.0231 29.8536 37.1731C30.0037 37.3231 30.2071 37.4074 30.4193 37.4074Z" fill="#15499F" stroke="#15499F" stroke-width="0.1"/>
<path d="M9.2843 33.1395H21.2761C21.4882 33.1395 21.6917 33.0552 21.8417 32.9052C21.9918 32.7551 22.0761 32.5517 22.0761 32.3395C22.0761 32.1273 21.9918 31.9238 21.8417 31.7738C21.6917 31.6238 21.4882 31.5395 21.2761 31.5395H9.2843C9.07213 31.5395 8.86864 31.6238 8.71862 31.7738C8.56859 31.9238 8.4843 32.1273 8.4843 32.3395C8.4843 32.5517 8.56859 32.7551 8.71862 32.9052C8.86864 33.0552 9.07213 33.1395 9.2843 33.1395Z" fill="#15499F" stroke="#15499F" stroke-width="0.1"/>
<path d="M9.2843 39.4384H21.2761C21.4882 39.4384 21.6917 39.3541 21.8417 39.2041C21.9918 39.0541 22.0761 38.8506 22.0761 38.6384C22.0761 38.4263 21.9918 38.2228 21.8417 38.0727C21.6917 37.9227 21.4882 37.8384 21.2761 37.8384H9.2843C9.07213 37.8384 8.86864 37.9227 8.71862 38.0727C8.56859 38.2228 8.4843 38.4263 8.4843 38.6384C8.4843 38.8506 8.56859 39.0541 8.71862 39.2041C8.86864 39.3541 9.07213 39.4384 9.2843 39.4384Z" fill="#15499F" stroke="#15499F" stroke-width="0.1"/>
<path d="M9.2843 45.7375H21.2761C21.4882 45.7375 21.6917 45.6532 21.8417 45.5032C21.9918 45.3532 22.0761 45.1497 22.0761 44.9375C22.0761 44.7253 21.9918 44.5218 21.8417 44.3718C21.6917 44.2218 21.4882 44.1375 21.2761 44.1375H9.2843C9.07213 44.1375 8.86864 44.2218 8.71862 44.3718C8.56859 44.5218 8.4843 44.7253 8.4843 44.9375C8.4843 45.1497 8.56859 45.3532 8.71862 45.5032C8.86864 45.6532 9.07213 45.7375 9.2843 45.7375Z" fill="#15499F" stroke="#15499F" stroke-width="0.1"/>
<path d="M9.2843 52.0366H21.2761C21.4882 52.0366 21.6917 51.9523 21.8417 51.8023C21.9918 51.6522 22.0761 51.4487 22.0761 51.2366C22.0761 51.0244 21.9918 50.8209 21.8417 50.6709C21.6917 50.5209 21.4882 50.4366 21.2761 50.4366H9.2843C9.07213 50.4366 8.86864 50.5209 8.71862 50.6709C8.56859 50.8209 8.4843 51.0244 8.4843 51.2366C8.4843 51.4487 8.56859 51.6522 8.71862 51.8023C8.86864 51.9523 9.07213 52.0366 9.2843 52.0366Z" fill="#15499F" stroke="#15499F" stroke-width="0.1"/>
<path d="M30.4193 43.5794H37.2258C37.438 43.5794 37.6415 43.4951 37.7915 43.3451C37.9415 43.1951 38.0258 42.9916 38.0258 42.7794C38.0258 42.5672 37.9415 42.3638 37.7915 42.2137C37.6415 42.0637 37.438 41.9794 37.2258 41.9794H30.4193C30.2071 41.9794 30.0037 42.0637 29.8536 42.2137C29.7036 42.3638 29.6193 42.5672 29.6193 42.7794C29.6193 42.9916 29.7036 43.1951 29.8536 43.3451C30.0037 43.4951 30.2071 43.5794 30.4193 43.5794Z" fill="#15499F" stroke="#15499F" stroke-width="0.1"/>
<path d="M31.0197 48.1514H30.4197C30.2075 48.1514 30.004 48.2357 29.854 48.3857C29.704 48.5358 29.6197 48.7392 29.6197 48.9514C29.6197 49.1636 29.704 49.3671 29.854 49.5171C30.004 49.6671 30.2075 49.7514 30.4197 49.7514H31.0197C31.2319 49.7514 31.4353 49.6671 31.5854 49.5171C31.7354 49.3671 31.8197 49.1636 31.8197 48.9514C31.8197 48.7392 31.7354 48.5358 31.5854 48.3857C31.4353 48.2357 31.2319 48.1514 31.0197 48.1514Z" fill="#15499F" stroke="#15499F" stroke-width="0.1"/>
<path d="M30.4193 31.2353H37.2258C37.438 31.2353 37.6415 31.151 37.7915 31.001C37.9415 30.851 38.0258 30.6475 38.0258 30.4353C38.0258 30.2231 37.9415 30.0196 37.7915 29.8696C37.6415 29.7196 37.438 29.6353 37.2258 29.6353H30.4193C30.2071 29.6353 30.0037 29.7196 29.8536 29.8696C29.7036 30.0196 29.6193 30.2231 29.6193 30.4353C29.6193 30.6475 29.7036 30.851 29.8536 31.001C30.0037 31.151 30.2071 31.2353 30.4193 31.2353Z" fill="#15499F" stroke="#15499F" stroke-width="0.1"/>
<path d="M30.4193 25.0634H37.2258C37.438 25.0634 37.6415 24.9791 37.7915 24.8291C37.9415 24.6791 38.0258 24.4756 38.0258 24.2634C38.0258 24.0513 37.9415 23.8478 37.7915 23.6977C37.6415 23.5477 37.438 23.4634 37.2258 23.4634H30.4193C30.2071 23.4634 30.0037 23.5477 29.8536 23.6977C29.7036 23.8478 29.6193 24.0513 29.6193 24.2634C29.6193 24.4756 29.7036 24.6791 29.8536 24.8291C30.0037 24.9791 30.2071 25.0634 30.4193 25.0634Z" fill="#15499F" stroke="#15499F" stroke-width="0.1"/>
<path d="M9.2843 20.5415H21.2761C21.4882 20.5415 21.6917 20.4572 21.8417 20.3071C21.9918 20.1571 22.0761 19.9536 22.0761 19.7415C22.0761 19.5293 21.9918 19.3258 21.8417 19.1758C21.6917 19.0257 21.4882 18.9415 21.2761 18.9415H9.2843C9.07213 18.9415 8.86864 19.0257 8.71862 19.1758C8.56859 19.3258 8.4843 19.5293 8.4843 19.7415C8.4843 19.9536 8.56859 20.1571 8.71862 20.3071C8.86864 20.4572 9.07213 20.5415 9.2843 20.5415Z" fill="#15499F" stroke="#15499F" stroke-width="0.1"/>
<mask id="path-12-outside-1" maskUnits="userSpaceOnUse" x="2.19043" y="0.25" width="59" height="63" fill="black">
<rect fill="white" x="2.19043" y="0.25" width="59" height="63"/>
<path d="M53.6031 44.648H51.2709C51.0309 44.6477 50.8007 44.5522 50.631 44.3825C50.4612 44.2127 50.3657 43.9826 50.3654 43.7425C50.3653 43.659 50.3512 43.5762 50.3237 43.4974V41.6087C51.0088 41.0232 51.5589 40.2962 51.9361 39.4777C52.3132 38.6591 52.5085 37.7686 52.5084 36.8674V33.1101C52.5066 31.4531 51.8475 29.8645 50.6758 28.6928C49.5041 27.5211 47.9155 26.862 46.2584 26.8601H46.1904C45.0594 26.859 43.9496 27.1667 42.9806 27.75V18.0184C42.9806 17.8195 42.9016 17.6287 42.7609 17.488C42.6202 17.3474 42.4295 17.2684 42.2306 17.2684H27.3701V12.6625C27.3701 12.4636 27.291 12.2728 27.1504 12.1322C27.0097 11.9915 26.819 11.9125 26.6201 11.9125H24.1749V6.43862C24.1749 6.23971 24.0959 6.04895 23.9553 5.90829C23.8146 5.76764 23.6238 5.68862 23.4249 5.68862H16.0949V2C16.0949 1.80109 16.0159 1.61032 15.8753 1.46967C15.7346 1.32902 15.5438 1.25 15.3449 1.25C15.146 1.25 14.9553 1.32902 14.8146 1.46967C14.6739 1.61032 14.5949 1.80109 14.5949 2V5.68862H7.13543C6.93652 5.68862 6.74575 5.76764 6.6051 5.90829C6.46445 6.04895 6.38543 6.23971 6.38543 6.43862V11.9125H3.94043C3.74152 11.9125 3.55075 11.9915 3.4101 12.1322C3.26945 12.2728 3.19043 12.4636 3.19043 12.6625V57.3553C3.19043 57.5542 3.26945 57.7449 3.4101 57.8856C3.55075 58.0262 3.74152 58.1053 3.94043 58.1053H31.6394V62C31.6394 62.1989 31.7185 62.3897 31.8591 62.5303C31.9998 62.671 32.1905 62.75 32.3894 62.75H60.0594C60.2584 62.75 60.4491 62.671 60.5898 62.5303C60.7304 62.3897 60.8094 62.1989 60.8094 62V51.8544C60.8073 49.9438 60.0474 48.1121 58.6964 46.7611C57.3454 45.4101 55.5137 44.6502 53.6031 44.648ZM7.88543 7.18862H22.6749V11.9125H7.88543V7.18862ZM25.8701 56.6053H4.69043V13.4125H25.8701V56.6053ZM46.2584 28.3601C47.5178 28.3615 48.7251 28.8624 49.6156 29.7529C50.5061 30.6434 51.007 31.8508 51.0084 33.1101V36.8674C51.007 38.1267 50.5061 39.3341 49.6156 40.2246C48.7251 41.1151 47.5178 41.616 46.2584 41.6174H46.1904C44.9311 41.616 43.7237 41.1151 42.8333 40.2246C41.9428 39.3341 41.4419 38.1267 41.4404 36.8674V33.1101C41.4419 31.8508 41.9428 30.6434 42.8333 29.7529C43.7237 28.8624 44.9311 28.3615 46.1904 28.3601H46.2584ZM46.1609 48.915H46.4587L47.7657 56.433L46.2032 58.258L44.6884 56.4455L46.1609 48.915ZM45.4297 46.148H47.0192L46.5851 47.415H45.8638L45.4297 46.148ZM44.7163 44.648L43.6374 43.4362V42.5703C44.4399 42.9314 45.31 43.1179 46.1899 43.1174H46.2579C47.1426 43.1179 48.0172 42.9294 48.8232 42.5645V43.6381L47.7676 44.648H44.7163ZM27.3701 56.6053V18.7684H41.4806V29.0085C40.4869 30.1438 39.9396 31.6014 39.9404 33.1101V36.8674C39.9404 37.7715 40.1369 38.6647 40.5163 39.4853C40.8958 40.3059 41.4491 41.0342 42.1379 41.6198V43.5698C42.1242 43.6264 42.1172 43.6845 42.1171 43.7427C42.1168 43.9828 42.0213 44.213 41.8516 44.3827C41.6818 44.5525 41.4516 44.648 41.2116 44.6483H38.8458C36.9352 44.6504 35.1035 45.4103 33.7525 46.7613C32.4015 48.1123 31.6416 49.944 31.6394 51.8546V56.6055L27.3701 56.6053ZM59.3094 61.25H33.1394V51.8544C33.1411 50.3414 33.7428 48.8909 34.8126 47.8211C35.8824 46.7513 37.3329 46.1496 38.8458 46.148H41.2116C41.5915 46.1476 41.9659 46.0572 42.304 45.884C42.6421 45.7108 42.9344 45.4599 43.1567 45.1519L43.7192 45.7839L44.7149 48.493L43.1476 56.5085C43.1261 56.6181 43.1294 56.731 43.1572 56.8392C43.185 56.9473 43.2366 57.0478 43.3082 57.1335L45.6207 59.9006C45.6906 59.9843 45.7779 60.0517 45.8765 60.0981C45.9751 60.1446 46.0827 60.169 46.1917 60.1696H46.1962C46.3045 60.1696 46.4114 60.1461 46.5098 60.1008C46.6081 60.0555 46.6954 59.9894 46.7658 59.9071L49.1351 57.14C49.2069 57.0561 49.2593 56.9573 49.2885 56.8508C49.3178 56.7443 49.3231 56.6326 49.3042 56.5238L47.8698 48.275L48.7198 45.8134L49.3614 45.1996C49.5775 45.4838 49.8542 45.7162 50.1714 45.88C50.4886 46.0438 50.8383 46.1348 51.1951 46.1464C51.2091 46.1472 51.2234 46.1476 51.2377 46.1476H53.6034C55.1164 46.1492 56.5669 46.751 57.6367 47.8208C58.7065 48.8906 59.3082 50.3411 59.3098 51.854L59.3094 61.25Z"/>
</mask>
<path d="M53.6031 44.648H51.2709C51.0309 44.6477 50.8007 44.5522 50.631 44.3825C50.4612 44.2127 50.3657 43.9826 50.3654 43.7425C50.3653 43.659 50.3512 43.5762 50.3237 43.4974V41.6087C51.0088 41.0232 51.5589 40.2962 51.9361 39.4777C52.3132 38.6591 52.5085 37.7686 52.5084 36.8674V33.1101C52.5066 31.4531 51.8475 29.8645 50.6758 28.6928C49.5041 27.5211 47.9155 26.862 46.2584 26.8601H46.1904C45.0594 26.859 43.9496 27.1667 42.9806 27.75V18.0184C42.9806 17.8195 42.9016 17.6287 42.7609 17.488C42.6202 17.3474 42.4295 17.2684 42.2306 17.2684H27.3701V12.6625C27.3701 12.4636 27.291 12.2728 27.1504 12.1322C27.0097 11.9915 26.819 11.9125 26.6201 11.9125H24.1749V6.43862C24.1749 6.23971 24.0959 6.04895 23.9553 5.90829C23.8146 5.76764 23.6238 5.68862 23.4249 5.68862H16.0949V2C16.0949 1.80109 16.0159 1.61032 15.8753 1.46967C15.7346 1.32902 15.5438 1.25 15.3449 1.25C15.146 1.25 14.9553 1.32902 14.8146 1.46967C14.6739 1.61032 14.5949 1.80109 14.5949 2V5.68862H7.13543C6.93652 5.68862 6.74575 5.76764 6.6051 5.90829C6.46445 6.04895 6.38543 6.23971 6.38543 6.43862V11.9125H3.94043C3.74152 11.9125 3.55075 11.9915 3.4101 12.1322C3.26945 12.2728 3.19043 12.4636 3.19043 12.6625V57.3553C3.19043 57.5542 3.26945 57.7449 3.4101 57.8856C3.55075 58.0262 3.74152 58.1053 3.94043 58.1053H31.6394V62C31.6394 62.1989 31.7185 62.3897 31.8591 62.5303C31.9998 62.671 32.1905 62.75 32.3894 62.75H60.0594C60.2584 62.75 60.4491 62.671 60.5898 62.5303C60.7304 62.3897 60.8094 62.1989 60.8094 62V51.8544C60.8073 49.9438 60.0474 48.1121 58.6964 46.7611C57.3454 45.4101 55.5137 44.6502 53.6031 44.648ZM7.88543 7.18862H22.6749V11.9125H7.88543V7.18862ZM25.8701 56.6053H4.69043V13.4125H25.8701V56.6053ZM46.2584 28.3601C47.5178 28.3615 48.7251 28.8624 49.6156 29.7529C50.5061 30.6434 51.007 31.8508 51.0084 33.1101V36.8674C51.007 38.1267 50.5061 39.3341 49.6156 40.2246C48.7251 41.1151 47.5178 41.616 46.2584 41.6174H46.1904C44.9311 41.616 43.7237 41.1151 42.8333 40.2246C41.9428 39.3341 41.4419 38.1267 41.4404 36.8674V33.1101C41.4419 31.8508 41.9428 30.6434 42.8333 29.7529C43.7237 28.8624 44.9311 28.3615 46.1904 28.3601H46.2584ZM46.1609 48.915H46.4587L47.7657 56.433L46.2032 58.258L44.6884 56.4455L46.1609 48.915ZM45.4297 46.148H47.0192L46.5851 47.415H45.8638L45.4297 46.148ZM44.7163 44.648L43.6374 43.4362V42.5703C44.4399 42.9314 45.31 43.1179 46.1899 43.1174H46.2579C47.1426 43.1179 48.0172 42.9294 48.8232 42.5645V43.6381L47.7676 44.648H44.7163ZM27.3701 56.6053V18.7684H41.4806V29.0085C40.4869 30.1438 39.9396 31.6014 39.9404 33.1101V36.8674C39.9404 37.7715 40.1369 38.6647 40.5163 39.4853C40.8958 40.3059 41.4491 41.0342 42.1379 41.6198V43.5698C42.1242 43.6264 42.1172 43.6845 42.1171 43.7427C42.1168 43.9828 42.0213 44.213 41.8516 44.3827C41.6818 44.5525 41.4516 44.648 41.2116 44.6483H38.8458C36.9352 44.6504 35.1035 45.4103 33.7525 46.7613C32.4015 48.1123 31.6416 49.944 31.6394 51.8546V56.6055L27.3701 56.6053ZM59.3094 61.25H33.1394V51.8544C33.1411 50.3414 33.7428 48.8909 34.8126 47.8211C35.8824 46.7513 37.3329 46.1496 38.8458 46.148H41.2116C41.5915 46.1476 41.9659 46.0572 42.304 45.884C42.6421 45.7108 42.9344 45.4599 43.1567 45.1519L43.7192 45.7839L44.7149 48.493L43.1476 56.5085C43.1261 56.6181 43.1294 56.731 43.1572 56.8392C43.185 56.9473 43.2366 57.0478 43.3082 57.1335L45.6207 59.9006C45.6906 59.9843 45.7779 60.0517 45.8765 60.0981C45.9751 60.1446 46.0827 60.169 46.1917 60.1696H46.1962C46.3045 60.1696 46.4114 60.1461 46.5098 60.1008C46.6081 60.0555 46.6954 59.9894 46.7658 59.9071L49.1351 57.14C49.2069 57.0561 49.2593 56.9573 49.2885 56.8508C49.3178 56.7443 49.3231 56.6326 49.3042 56.5238L47.8698 48.275L48.7198 45.8134L49.3614 45.1996C49.5775 45.4838 49.8542 45.7162 50.1714 45.88C50.4886 46.0438 50.8383 46.1348 51.1951 46.1464C51.2091 46.1472 51.2234 46.1476 51.2377 46.1476H53.6034C55.1164 46.1492 56.5669 46.751 57.6367 47.8208C58.7065 48.8906 59.3082 50.3411 59.3098 51.854L59.3094 61.25Z" fill="#15499F"/>
<path d="M53.6031 44.648H51.2709C51.0309 44.6477 50.8007 44.5522 50.631 44.3825C50.4612 44.2127 50.3657 43.9826 50.3654 43.7425C50.3653 43.659 50.3512 43.5762 50.3237 43.4974V41.6087C51.0088 41.0232 51.5589 40.2962 51.9361 39.4777C52.3132 38.6591 52.5085 37.7686 52.5084 36.8674V33.1101C52.5066 31.4531 51.8475 29.8645 50.6758 28.6928C49.5041 27.5211 47.9155 26.862 46.2584 26.8601H46.1904C45.0594 26.859 43.9496 27.1667 42.9806 27.75V18.0184C42.9806 17.8195 42.9016 17.6287 42.7609 17.488C42.6202 17.3474 42.4295 17.2684 42.2306 17.2684H27.3701V12.6625C27.3701 12.4636 27.291 12.2728 27.1504 12.1322C27.0097 11.9915 26.819 11.9125 26.6201 11.9125H24.1749V6.43862C24.1749 6.23971 24.0959 6.04895 23.9553 5.90829C23.8146 5.76764 23.6238 5.68862 23.4249 5.68862H16.0949V2C16.0949 1.80109 16.0159 1.61032 15.8753 1.46967C15.7346 1.32902 15.5438 1.25 15.3449 1.25C15.146 1.25 14.9553 1.32902 14.8146 1.46967C14.6739 1.61032 14.5949 1.80109 14.5949 2V5.68862H7.13543C6.93652 5.68862 6.74575 5.76764 6.6051 5.90829C6.46445 6.04895 6.38543 6.23971 6.38543 6.43862V11.9125H3.94043C3.74152 11.9125 3.55075 11.9915 3.4101 12.1322C3.26945 12.2728 3.19043 12.4636 3.19043 12.6625V57.3553C3.19043 57.5542 3.26945 57.7449 3.4101 57.8856C3.55075 58.0262 3.74152 58.1053 3.94043 58.1053H31.6394V62C31.6394 62.1989 31.7185 62.3897 31.8591 62.5303C31.9998 62.671 32.1905 62.75 32.3894 62.75H60.0594C60.2584 62.75 60.4491 62.671 60.5898 62.5303C60.7304 62.3897 60.8094 62.1989 60.8094 62V51.8544C60.8073 49.9438 60.0474 48.1121 58.6964 46.7611C57.3454 45.4101 55.5137 44.6502 53.6031 44.648ZM7.88543 7.18862H22.6749V11.9125H7.88543V7.18862ZM25.8701 56.6053H4.69043V13.4125H25.8701V56.6053ZM46.2584 28.3601C47.5178 28.3615 48.7251 28.8624 49.6156 29.7529C50.5061 30.6434 51.007 31.8508 51.0084 33.1101V36.8674C51.007 38.1267 50.5061 39.3341 49.6156 40.2246C48.7251 41.1151 47.5178 41.616 46.2584 41.6174H46.1904C44.9311 41.616 43.7237 41.1151 42.8333 40.2246C41.9428 39.3341 41.4419 38.1267 41.4404 36.8674V33.1101C41.4419 31.8508 41.9428 30.6434 42.8333 29.7529C43.7237 28.8624 44.9311 28.3615 46.1904 28.3601H46.2584ZM46.1609 48.915H46.4587L47.7657 56.433L46.2032 58.258L44.6884 56.4455L46.1609 48.915ZM45.4297 46.148H47.0192L46.5851 47.415H45.8638L45.4297 46.148ZM44.7163 44.648L43.6374 43.4362V42.5703C44.4399 42.9314 45.31 43.1179 46.1899 43.1174H46.2579C47.1426 43.1179 48.0172 42.9294 48.8232 42.5645V43.6381L47.7676 44.648H44.7163ZM27.3701 56.6053V18.7684H41.4806V29.0085C40.4869 30.1438 39.9396 31.6014 39.9404 33.1101V36.8674C39.9404 37.7715 40.1369 38.6647 40.5163 39.4853C40.8958 40.3059 41.4491 41.0342 42.1379 41.6198V43.5698C42.1242 43.6264 42.1172 43.6845 42.1171 43.7427C42.1168 43.9828 42.0213 44.213 41.8516 44.3827C41.6818 44.5525 41.4516 44.648 41.2116 44.6483H38.8458C36.9352 44.6504 35.1035 45.4103 33.7525 46.7613C32.4015 48.1123 31.6416 49.944 31.6394 51.8546V56.6055L27.3701 56.6053ZM59.3094 61.25H33.1394V51.8544C33.1411 50.3414 33.7428 48.8909 34.8126 47.8211C35.8824 46.7513 37.3329 46.1496 38.8458 46.148H41.2116C41.5915 46.1476 41.9659 46.0572 42.304 45.884C42.6421 45.7108 42.9344 45.4599 43.1567 45.1519L43.7192 45.7839L44.7149 48.493L43.1476 56.5085C43.1261 56.6181 43.1294 56.731 43.1572 56.8392C43.185 56.9473 43.2366 57.0478 43.3082 57.1335L45.6207 59.9006C45.6906 59.9843 45.7779 60.0517 45.8765 60.0981C45.9751 60.1446 46.0827 60.169 46.1917 60.1696H46.1962C46.3045 60.1696 46.4114 60.1461 46.5098 60.1008C46.6081 60.0555 46.6954 59.9894 46.7658 59.9071L49.1351 57.14C49.2069 57.0561 49.2593 56.9573 49.2885 56.8508C49.3178 56.7443 49.3231 56.6326 49.3042 56.5238L47.8698 48.275L48.7198 45.8134L49.3614 45.1996C49.5775 45.4838 49.8542 45.7162 50.1714 45.88C50.4886 46.0438 50.8383 46.1348 51.1951 46.1464C51.2091 46.1472 51.2234 46.1476 51.2377 46.1476H53.6034C55.1164 46.1492 56.5669 46.751 57.6367 47.8208C58.7065 48.8906 59.3082 50.3411 59.3098 51.854L59.3094 61.25Z" stroke="#15499F" stroke-width="0.2" mask="url(#path-12-outside-1)"/>
<path d="M55.3102 51.5518H51.7584C51.5462 51.5518 51.3428 51.6361 51.1927 51.7861C51.0427 51.9361 50.9584 52.1396 50.9584 52.3518C50.9584 52.564 51.0427 52.7675 51.1927 52.9175C51.3428 53.0675 51.5462 53.1518 51.7584 53.1518H55.3102C55.5223 53.1518 55.7258 53.0675 55.8759 52.9175C56.0259 52.7675 56.1102 52.564 56.1102 52.3518C56.1102 52.1396 56.0259 51.9361 55.8759 51.7861C55.7258 51.6361 55.5223 51.5518 55.3102 51.5518Z" fill="#15499F" stroke="#15499F" stroke-width="0.1"/>
</svg>
