<svg width="64" height="64" viewBox="0 0 64 64" fill="none" xmlns="http://www.w3.org/2000/svg">
<path d="M28.6689 43.323L28.6689 43.3229C28.8546 43.1373 29.1126 43.0302 29.375 43.0302C29.6374 43.0302 29.8954 43.1373 30.081 43.3229L30.081 43.323C30.2668 43.5085 30.3737 43.7665 30.3737 44.0289C30.3737 44.2913 30.2667 44.5494 30.081 44.735L30.0808 44.7352C29.8955 44.9216 29.6376 45.0277 29.375 45.0277C29.1124 45.0277 28.8545 44.9216 28.6691 44.7352L28.6689 44.735C28.4831 44.5494 28.3762 44.2925 28.3762 44.0289C28.3762 43.7665 28.4832 43.5085 28.6689 43.323Z" fill="#15499F" stroke="white" stroke-width="0.19"/>
<path d="M53.3876 49.8779L53.3876 49.8778C53.2019 49.6923 53.095 49.4343 53.095 49.1719C53.095 48.9095 53.202 48.6515 53.3877 48.4658C53.5733 48.28 53.8313 48.1731 54.0938 48.1731C54.3562 48.1731 54.6142 48.28 54.7997 48.4657L54.7998 48.4658C54.9855 48.6514 55.0925 48.9095 55.0925 49.1719C55.0925 49.4343 54.9855 49.6923 54.7998 49.8778L54.7997 49.8779C54.6142 50.0636 54.3562 50.1706 54.0938 50.1706C53.8313 50.1706 53.5733 50.0635 53.3876 49.8779Z" fill="#15499F" stroke="white" stroke-width="0.19"/>
<mask id="path-3-inside-1" fill="white">
<path d="M58.9062 33.0938H54.0938V23.9177C54.0938 21.3738 52.29 19.1331 49.8048 18.5899L46.2299 17.8083C47.4579 16.7551 48.238 15.1941 48.238 13.4533V9.73803C48.238 6.57403 45.664 4 42.5 4C39.336 4 36.762 6.57403 36.762 9.73803V13.4534C36.762 15.1919 37.5402 16.7512 38.7654 17.8043L35.1912 18.5882C32.7084 19.1329 30.9062 21.3733 30.9062 23.9153V28.7188H25C24.396 28.7188 23.9062 29.2085 23.9062 29.8125V33.0938H16.25V30.0312H20.8438C21.4477 30.0312 21.9375 29.5415 21.9375 28.9375V17.125C21.9375 16.521 21.4477 16.0312 20.8438 16.0312H5.09375C4.48978 16.0312 4 16.521 4 17.125V28.9375C4 29.5415 4.48978 30.0312 5.09375 30.0312H9.6875V33.0938H5.09375C4.48978 33.0938 4 33.5835 4 34.1875V39.4375C4 40.0415 4.48978 40.5312 5.09375 40.5312H8.8125V58.9062C8.8125 59.5102 9.30228 60 9.90625 60H54.0938C54.6977 60 55.1875 59.5102 55.1875 58.9062V53.5469C55.1875 52.9429 54.6977 52.4531 54.0938 52.4531C53.4898 52.4531 53 52.9429 53 53.5469V57.8125H11V45.1231H25C25.604 45.1231 26.0938 44.6334 26.0938 44.0294C26.0938 43.4254 25.604 42.9356 25 42.9356H11V40.5312H53V44.7969C53 45.4008 53.4898 45.8906 54.0938 45.8906C54.6977 45.8906 55.1875 45.4008 55.1875 44.7969V40.5312H58.9062C59.5102 40.5312 60 40.0415 60 39.4375V34.1875C60 33.5835 59.5102 33.0938 58.9062 33.0938ZM38.9495 12.6785H40.4545C42.4752 12.6785 44.4053 12.0904 46.0505 10.9962V13.4534C46.0505 15.4111 44.4577 17.0039 42.5 17.0039C40.5423 17.0039 38.9495 15.4111 38.9495 13.4534V12.6785ZM42.5 19.1914C42.8406 19.1914 43.1739 19.1599 43.4983 19.1027L42.4865 21.3808L41.4725 19.0976C41.8062 19.1581 42.1492 19.1914 42.5 19.1914ZM42.5 6.1875C43.9943 6.1875 45.275 7.11588 45.7981 8.42564C44.3326 9.76013 42.4498 10.491 40.4545 10.491H38.9495V9.73803C38.9495 7.78033 40.5423 6.1875 42.5 6.1875ZM33.0938 23.9153C33.0938 22.3929 34.1731 21.0511 35.6601 20.7249L39.4342 19.897L41.4871 24.5193C41.6625 24.9145 42.0544 25.1691 42.4868 25.1691C42.9191 25.1691 43.3109 24.9145 43.4865 24.5193L45.5395 19.8965L49.3379 20.7269C50.826 21.0523 51.9062 22.3942 51.9062 23.9177V33.0938H40.0938V29.8125C40.0938 29.2085 39.604 28.7188 39 28.7188H33.0938V23.9153ZM26.0938 30.9062H37.9062V33.0938H32H26.0938V30.9062ZM6.1875 18.2188H19.75V27.8438H16.2328C16.0638 26.192 14.6645 24.899 12.9688 24.899C11.273 24.899 9.87377 26.192 9.70467 27.8438H6.1875V18.2188ZM11.875 28.1803C11.875 27.5772 12.3657 27.0865 12.9688 27.0865C13.5718 27.0865 14.0625 27.5772 14.0625 28.1803V33.0938H11.875V28.1803ZM57.8125 38.3438H6.1875V35.2812H57.8125V38.3438Z"/>
</mask>
<path d="M58.9062 33.0938H54.0938V23.9177C54.0938 21.3738 52.29 19.1331 49.8048 18.5899L46.2299 17.8083C47.4579 16.7551 48.238 15.1941 48.238 13.4533V9.73803C48.238 6.57403 45.664 4 42.5 4C39.336 4 36.762 6.57403 36.762 9.73803V13.4534C36.762 15.1919 37.5402 16.7512 38.7654 17.8043L35.1912 18.5882C32.7084 19.1329 30.9062 21.3733 30.9062 23.9153V28.7188H25C24.396 28.7188 23.9062 29.2085 23.9062 29.8125V33.0938H16.25V30.0312H20.8438C21.4477 30.0312 21.9375 29.5415 21.9375 28.9375V17.125C21.9375 16.521 21.4477 16.0312 20.8438 16.0312H5.09375C4.48978 16.0312 4 16.521 4 17.125V28.9375C4 29.5415 4.48978 30.0312 5.09375 30.0312H9.6875V33.0938H5.09375C4.48978 33.0938 4 33.5835 4 34.1875V39.4375C4 40.0415 4.48978 40.5312 5.09375 40.5312H8.8125V58.9062C8.8125 59.5102 9.30228 60 9.90625 60H54.0938C54.6977 60 55.1875 59.5102 55.1875 58.9062V53.5469C55.1875 52.9429 54.6977 52.4531 54.0938 52.4531C53.4898 52.4531 53 52.9429 53 53.5469V57.8125H11V45.1231H25C25.604 45.1231 26.0938 44.6334 26.0938 44.0294C26.0938 43.4254 25.604 42.9356 25 42.9356H11V40.5312H53V44.7969C53 45.4008 53.4898 45.8906 54.0938 45.8906C54.6977 45.8906 55.1875 45.4008 55.1875 44.7969V40.5312H58.9062C59.5102 40.5312 60 40.0415 60 39.4375V34.1875C60 33.5835 59.5102 33.0938 58.9062 33.0938ZM38.9495 12.6785H40.4545C42.4752 12.6785 44.4053 12.0904 46.0505 10.9962V13.4534C46.0505 15.4111 44.4577 17.0039 42.5 17.0039C40.5423 17.0039 38.9495 15.4111 38.9495 13.4534V12.6785ZM42.5 19.1914C42.8406 19.1914 43.1739 19.1599 43.4983 19.1027L42.4865 21.3808L41.4725 19.0976C41.8062 19.1581 42.1492 19.1914 42.5 19.1914ZM42.5 6.1875C43.9943 6.1875 45.275 7.11588 45.7981 8.42564C44.3326 9.76013 42.4498 10.491 40.4545 10.491H38.9495V9.73803C38.9495 7.78033 40.5423 6.1875 42.5 6.1875ZM33.0938 23.9153C33.0938 22.3929 34.1731 21.0511 35.6601 20.7249L39.4342 19.897L41.4871 24.5193C41.6625 24.9145 42.0544 25.1691 42.4868 25.1691C42.9191 25.1691 43.3109 24.9145 43.4865 24.5193L45.5395 19.8965L49.3379 20.7269C50.826 21.0523 51.9062 22.3942 51.9062 23.9177V33.0938H40.0938V29.8125C40.0938 29.2085 39.604 28.7188 39 28.7188H33.0938V23.9153ZM26.0938 30.9062H37.9062V33.0938H32H26.0938V30.9062ZM6.1875 18.2188H19.75V27.8438H16.2328C16.0638 26.192 14.6645 24.899 12.9688 24.899C11.273 24.899 9.87377 26.192 9.70467 27.8438H6.1875V18.2188ZM11.875 28.1803C11.875 27.5772 12.3657 27.0865 12.9688 27.0865C13.5718 27.0865 14.0625 27.5772 14.0625 28.1803V33.0938H11.875V28.1803ZM57.8125 38.3438H6.1875V35.2812H57.8125V38.3438Z" fill="#15499F" stroke="white" stroke-width="0.38" mask="url(#path-3-inside-1)"/>
</svg>
