<svg width="64" height="50" viewBox="0 0 64 50" fill="none" xmlns="http://www.w3.org/2000/svg">
<path d="M21.0315 24.9998C21.0315 14.2676 29.7631 5.53616 40.4951 5.53616C51.2273 5.53616 59.9589 14.2678 59.9589 24.9999C59.9589 35.7321 51.2276 44.4635 40.4953 44.4635C36.4098 44.4635 32.4996 43.2117 29.187 40.8433C28.7361 40.5208 28.632 39.8941 28.9543 39.4433C29.2768 38.9924 29.9035 38.8882 30.3543 39.2106C33.3245 41.3341 36.8313 42.4565 40.4953 42.4565C50.1209 42.4565 57.952 34.6256 57.952 24.9999C57.952 15.3742 50.1211 7.54329 40.4954 7.54329C30.8697 7.54329 23.0388 15.3742 23.0388 24.9999C23.0388 29.2964 24.6136 33.4254 27.4732 36.626C27.8424 37.0394 27.8068 37.6737 27.3935 38.0429C26.98 38.4122 26.3457 38.3764 25.9765 37.9632C22.7876 34.3942 21.0315 29.7905 21.0315 24.9998Z" fill="#15499F" stroke="white" stroke-width="0.19"/>
<path d="M4.45113 0.379546H52.1829C52.737 0.379546 53.1864 0.82877 53.1862 1.38303C53.1862 1.9372 52.7369 2.38655 52.1828 2.38655H4.451C3.15566 2.38655 2.102 3.44008 2.102 4.73555V35.3605C2.102 35.9147 1.65266 36.364 1.0985 36.364C0.544342 36.364 0.095 35.9147 0.095 35.3605V4.73555C0.095 2.33364 2.04909 0.379546 4.45113 0.379546Z" fill="#15499F" stroke="white" stroke-width="0.19"/>
<path d="M55.9913 0.379546H59.549C61.9509 0.379546 63.905 2.33364 63.9053 4.73555V45.2645C63.9053 47.6665 61.9511 49.6205 59.5491 49.6205H4.45125C2.04921 49.6205 0.0951221 47.6665 0.0951221 45.2645V39.0223C0.0951221 38.4681 0.544464 38.0188 1.09862 38.0188C1.65278 38.0188 2.10212 38.4681 2.10212 39.0223V45.2645C2.10212 46.5599 3.15565 47.6135 4.45112 47.6135H59.549C60.8444 47.6135 61.898 46.5599 61.898 45.2645V4.73555C61.898 3.4402 60.8444 2.38655 59.549 2.38655H55.9913C55.4371 2.38655 54.9878 1.9372 54.9878 1.38305C54.9878 0.828888 55.4371 0.379546 55.9913 0.379546Z" fill="#15499F" stroke="white" stroke-width="0.19"/>
<path d="M40.356 28.3328L40.3556 28.3328C40.3491 28.3323 40.3427 28.332 40.3363 28.3318L40.3353 28.3318C39.6959 28.3034 39.0825 28.0911 38.562 27.7179M40.356 28.3328L38.617 27.6405M40.356 28.3328C40.4024 28.3357 40.4486 28.3365 40.4945 28.3363L40.356 28.3328ZM38.562 27.7179C38.5619 27.7178 38.5618 27.7178 38.5617 27.7177L38.617 27.6405M38.562 27.7179C38.5621 27.718 38.5621 27.718 38.5621 27.718L38.617 27.6405M38.562 27.7179C38.5513 27.7103 38.541 27.7032 38.5308 27.6964L38.5274 27.6941L38.5275 27.694C37.6693 27.0663 37.1583 26.0625 37.1583 25.0003C37.1583 24.9537 37.159 24.9059 37.162 24.8575L37.1621 24.8557L37.1621 24.8557C37.1622 24.8537 37.1624 24.8516 37.1625 24.8492C37.1626 24.8467 37.1627 24.8439 37.1629 24.8405L37.1629 24.8399C37.1925 24.1975 37.4047 23.5836 37.7786 23.0621M38.617 27.6405C38.6059 27.6326 38.5948 27.6248 38.5835 27.6173C37.7498 27.0075 37.2533 26.0321 37.2533 25.0003C37.2533 24.9546 37.254 24.909 37.2568 24.8632C37.2573 24.857 37.2575 24.8506 37.2578 24.8442C37.2865 24.2201 37.4927 23.6238 37.8559 23.1173M37.7786 23.0621C37.7786 23.0621 37.7786 23.0621 37.7786 23.0622L37.8559 23.1173M37.7786 23.0621C37.7787 23.062 37.7787 23.062 37.7787 23.062L37.8559 23.1173M37.7786 23.0621C38.4037 22.1858 39.4188 21.6623 40.4944 21.6623C40.5404 21.6623 40.588 21.663 40.6362 21.666L40.6372 21.6661C40.6406 21.6664 40.6433 21.6665 40.6468 21.6667C40.6492 21.6668 40.652 21.6669 40.6557 21.6671L40.6504 21.762M37.8559 23.1173L40.4948 28.3363C41.5713 28.3363 42.5875 27.8125 43.2133 26.9351M40.6504 21.762L40.6548 21.6671C41.2962 21.6965 41.9096 21.909 42.4318 22.2833M40.6504 21.762C41.2735 21.7906 41.8693 21.997 42.3765 22.3606M40.6504 21.762C40.6482 21.7618 40.6459 21.7617 40.6436 21.7616C40.6392 21.7614 40.6347 21.7612 40.6302 21.7608L42.3765 22.3606M42.4318 22.2833C42.4318 22.2833 42.4318 22.2834 42.4319 22.2834L42.3765 22.3606M42.4318 22.2833C42.4317 22.2833 42.4317 22.2832 42.4316 22.2832L42.3765 22.3606M42.4318 22.2833C43.3087 22.9076 43.8323 23.9232 43.8323 25.0001C43.8323 25.046 43.8315 25.0933 43.8286 25.14L43.8285 25.141C43.8283 25.1445 43.8282 25.1472 43.828 25.1507C43.8279 25.1531 43.8277 25.156 43.8275 25.1599L43.7327 25.1546L43.8276 25.159C43.7981 25.7999 43.5859 26.414 43.2133 26.9351M43.2133 26.9351L43.1359 26.88L43.2132 26.9352C43.2132 26.9352 43.2132 26.9352 43.2133 26.9351ZM46.499 18.8241L46.499 18.8241C48.6653 17.8642 51.1447 18.0627 53.1315 19.3555C55.1183 20.6482 56.3043 22.8347 56.3047 25.2051C56.3047 25.7593 55.8553 26.2086 55.3012 26.2086H45.7733H45.6988L45.681 26.2809C45.5716 26.7256 45.4055 27.1534 45.1854 27.556L45.1629 27.5972L45.1819 27.6401L46.6703 31.0018L46.6703 31.0018C47.6304 33.1686 47.4316 35.6486 46.1385 37.6359C44.8458 39.6226 42.66 40.8086 40.2908 40.8086C39.7366 40.8086 39.2873 40.3593 39.2873 39.8051V30.2785V30.204L39.215 30.1862C38.7697 30.0767 38.3412 29.9093 37.9375 29.6879L37.8963 29.6653L37.8533 29.6844L34.4928 31.173L34.4928 31.173C33.5841 31.576 32.6204 31.775 31.6612 31.775C30.3334 31.7751 29.0141 31.3937 27.8605 30.6433L27.8087 30.723L27.8605 30.6433C25.8733 29.3509 24.6872 27.1641 24.6872 24.7936C24.6872 24.2394 25.1365 23.7901 25.6907 23.7901H25.7857V23.79H35.2169H35.2914L35.3092 23.7177C35.4187 23.2722 35.5854 22.8435 35.806 22.4405L35.8285 22.3993L35.8095 22.3564L34.3214 18.9954L34.3214 18.9954C33.3614 16.8288 33.5599 14.3491 34.8528 12.3623L34.7732 12.3105L34.8528 12.3623C36.1454 10.3757 38.3314 9.18985 40.7008 9.18985C41.2549 9.18985 41.7043 9.63919 41.7043 10.1933V19.7213V19.7958L41.7766 19.8136C42.2213 19.9229 42.6493 20.0894 43.0517 20.3097L43.0928 20.3322L43.1358 20.3132L46.499 18.8241ZM28.955 28.9609L29.0068 28.8812L28.955 28.9609C30.3699 29.8814 32.1365 30.0223 33.6795 29.3381C33.6795 29.3381 33.6795 29.3381 33.6795 29.3381L36.1198 28.2573L36.2266 28.21L36.1585 28.1151C35.6827 27.4523 35.3614 26.6866 35.2259 25.8764L35.2126 25.7971H35.1322H26.9134H26.7941L26.8208 25.9134C27.1058 27.1544 27.8599 28.2484 28.955 28.9609ZM39.6973 11.4162V11.2969L39.581 11.3236C38.3409 11.6087 37.2474 12.3622 36.5352 13.457C35.6143 14.8723 35.4728 16.6391 36.1565 18.1826C36.1565 18.1826 36.1566 18.1826 36.1566 18.1826L37.237 20.6229L37.2844 20.7298L37.3793 20.6617C38.0417 20.1864 38.8074 19.8654 39.618 19.7298L39.6973 19.7165V19.6361V11.4162ZM41.2943 38.5823V38.7017L41.4106 38.6749C42.6507 38.3898 43.744 37.6363 44.4563 36.5414C45.3776 35.1256 45.5193 33.3584 44.8352 31.8148C44.8351 31.8147 44.8351 31.8147 44.8351 31.8147L43.7547 29.3744L43.7073 29.2675L43.6124 29.3357C42.9498 29.8112 42.184 30.1327 41.3736 30.2685L41.2943 30.2818V30.3622V38.5823ZM45.7647 24.1221L45.8584 24.1144V24.2013H54.0785H54.1978L54.1711 24.0851C53.886 22.8442 53.1322 21.7501 52.0371 21.0376C50.6219 20.1168 48.8552 19.9752 47.3119 20.6591L44.8707 21.7401L44.7638 21.7874L44.832 21.8824C45.3075 22.5447 45.629 23.3109 45.7647 24.1221Z" fill="#15499F" stroke="white" stroke-width="0.19"/>
<path d="M6.02135 7.6293H17.4454C17.9997 7.6293 18.4489 8.07863 18.4489 8.63281C18.4489 9.18697 17.9995 9.63631 17.4454 9.63631H6.02135C5.46719 9.63631 5.01785 9.18697 5.01785 8.63281C5.01785 8.07865 5.46719 7.6293 6.02135 7.6293Z" fill="#15499F" stroke="white" stroke-width="0.19"/>
<path d="M6.02135 23.9966H17.4454C17.9997 23.9966 18.4489 24.4459 18.4489 25.0001C18.4489 25.5543 17.9995 26.0036 17.4454 26.0036H6.02135C5.46719 26.0036 5.01785 25.5543 5.01785 25.0001C5.01785 24.446 5.46719 23.9966 6.02135 23.9966Z" fill="#15499F" stroke="white" stroke-width="0.19"/>
<path d="M6.02135 34.908H17.4454C17.9998 34.908 18.4489 35.3573 18.4489 35.9115C18.4489 36.4656 17.9995 36.915 17.4454 36.915H6.02135C5.46719 36.915 5.01785 36.4656 5.01785 35.9115C5.01785 35.3573 5.46719 34.908 6.02135 34.908Z" fill="#15499F" stroke="white" stroke-width="0.19"/>
<path d="M6.02135 29.4524H17.4454C17.9998 29.4524 18.4489 29.9017 18.4489 30.4559C18.4489 31.0101 17.9995 31.4594 17.4454 31.4594H6.02135C5.46719 31.4594 5.01785 31.0101 5.01785 30.4559C5.01785 29.9018 5.46719 29.4524 6.02135 29.4524Z" fill="#15499F" stroke="white" stroke-width="0.19"/>
<path d="M6.02135 40.3637H17.4454C17.9998 40.3637 18.4489 40.813 18.4489 41.3672C18.4489 41.9213 17.9995 42.3707 17.4454 42.3707H6.02135C5.46719 42.3707 5.01785 41.9213 5.01785 41.3672C5.01785 40.813 5.46719 40.3637 6.02135 40.3637Z" fill="#15499F" stroke="white" stroke-width="0.19"/>
<path d="M16.2006 18.541H17.4454C17.9998 18.541 18.4489 18.9904 18.4489 19.5445C18.4489 20.0987 17.9996 20.548 17.4454 20.548H16.2006C15.6464 20.548 15.1971 20.0987 15.1971 19.5445C15.1971 18.9904 15.6464 18.541 16.2006 18.541Z" fill="#15499F" stroke="white" stroke-width="0.19"/>
<path d="M6.02135 18.541H12.5389C13.093 18.541 13.5424 18.9904 13.5424 19.5445C13.5424 20.0987 13.093 20.548 12.5389 20.548H6.02135C5.46719 20.548 5.01785 20.0987 5.01785 19.5445C5.01785 18.9904 5.46719 18.541 6.02135 18.541Z" fill="#15499F" stroke="white" stroke-width="0.19"/>
<path d="M6.02135 13.0851H17.4454C17.9998 13.0851 18.4489 13.5343 18.4489 14.0886C18.4489 14.6428 17.9995 15.0921 17.4454 15.0921H6.02135C5.46719 15.0921 5.01785 14.6428 5.01785 14.0886C5.01785 13.5345 5.46719 13.0851 6.02135 13.0851Z" fill="#15499F" stroke="white" stroke-width="0.19"/>
</svg>
