<svg width="70" height="50" viewBox="0 0 70 50" fill="none" xmlns="http://www.w3.org/2000/svg">
<rect width="70" height="50" fill="#15499F"/>
<path d="M14.1392 20.306C12.9872 20.306 11.9432 20.024 11.0072 19.46C10.0832 18.884 9.3572 18.11 8.8292 17.138C8.3012 16.166 8.0372 15.098 8.0372 13.934C8.0372 12.746 8.3132 11.642 8.8652 10.622C9.4292 9.602 10.1792 8.792 11.1152 8.192C12.0632 7.58 13.0952 7.274 14.2112 7.274C15.3032 7.274 16.2992 7.52 17.1992 8.012C18.0992 8.492 18.5372 9.368 18.5132 10.64H17.0912C17.1272 9.884 16.8272 9.362 16.1912 9.074C15.5672 8.786 14.8772 8.642 14.1212 8.642C13.2812 8.642 12.5072 8.894 11.7992 9.398C11.0912 9.89 10.5272 10.55 10.1072 11.378C9.6872 12.194 9.4772 13.064 9.4772 13.988C9.4772 14.876 9.6752 15.698 10.0712 16.454C10.4792 17.21 11.0372 17.816 11.7452 18.272C12.4532 18.716 13.2572 18.938 14.1572 18.938C14.9972 18.938 15.7712 18.746 16.4792 18.362C17.1992 17.978 17.7692 17.432 18.1892 16.724L19.3952 17.552C18.8312 18.464 18.0752 19.154 17.1272 19.622C16.1912 20.078 15.1952 20.306 14.1392 20.306ZM30.138 13.574C31.29 14.27 31.866 15.266 31.866 16.562C31.866 17.318 31.65 18.008 31.218 18.632C30.786 19.244 30.174 19.676 29.382 19.928C28.866 20.096 28.164 20.18 27.276 20.18C26.04 20.18 25.152 20.15 24.612 20.09L23.514 19.964V7.454H27.582C28.182 7.454 28.686 7.532 29.094 7.688C29.79 7.952 30.336 8.36 30.732 8.912C31.128 9.464 31.326 10.1 31.326 10.82C31.326 11.924 30.84 12.722 29.868 13.214C29.796 13.25 29.67 13.298 29.49 13.358C29.562 13.358 29.664 13.382 29.796 13.43C29.94 13.478 30.054 13.526 30.138 13.574ZM24.99 8.858V12.782H27.564C28.248 12.782 28.8 12.608 29.22 12.26C29.64 11.912 29.85 11.408 29.85 10.748C29.85 10.172 29.676 9.728 29.328 9.416C28.98 9.092 28.476 8.906 27.816 8.858H24.99ZM27.456 18.812C28.392 18.812 29.118 18.62 29.634 18.236C30.15 17.852 30.408 17.294 30.408 16.562C30.408 15.854 30.168 15.278 29.688 14.834C29.22 14.39 28.554 14.168 27.69 14.168H24.99V18.722L26.286 18.776L27.456 18.812ZM41.6844 20.396C40.4964 20.384 39.4284 20.108 38.4804 19.568C37.5444 19.016 36.8064 18.272 36.2664 17.336C35.7384 16.388 35.4744 15.32 35.4744 14.132V13.61C35.4744 12.47 35.7444 11.426 36.2844 10.478C36.8364 9.518 37.5804 8.762 38.5164 8.21C39.4644 7.646 40.4964 7.364 41.6124 7.364C42.7404 7.364 43.7724 7.646 44.7084 8.21C45.6444 8.762 46.3884 9.518 46.9404 10.478C47.4924 11.426 47.7684 12.47 47.7684 13.61V14.132C47.7684 15.32 47.4984 16.394 46.9584 17.354C46.4304 18.314 45.7044 19.064 44.7804 19.604C43.8564 20.144 42.8244 20.408 41.6844 20.396ZM41.6304 19.028C42.5064 19.028 43.2984 18.818 44.0064 18.398C44.7144 17.966 45.2724 17.378 45.6804 16.634C46.0884 15.89 46.2924 15.056 46.2924 14.132V13.61C46.2924 12.734 46.0824 11.924 45.6624 11.18C45.2424 10.424 44.6724 9.83 43.9524 9.398C43.2444 8.954 42.4584 8.732 41.5944 8.732C40.7424 8.732 39.9624 8.954 39.2544 9.398C38.5464 9.83 37.9824 10.424 37.5624 11.18C37.1544 11.924 36.9504 12.734 36.9504 13.61V14.132C36.9504 15.056 37.1544 15.89 37.5624 16.634C37.9704 17.378 38.5284 17.966 39.2364 18.398C39.9564 18.818 40.7544 19.028 41.6304 19.028ZM62.1712 20.018H60.6952V11.864L60.7852 10.676L60.0832 11.612L53.9452 18.992L52.9012 20.018H52.1452V7.634H53.6032L53.5852 17.066L53.5672 17.57L53.8192 17.12L61.5412 7.472H62.1712V20.018ZM57.2932 6.68C56.4172 6.68 55.7392 6.422 55.2592 5.906C54.7912 5.378 54.5692 4.7 54.5932 3.872H56.0332C56.0332 4.352 56.1352 4.736 56.3392 5.024C56.5432 5.3 56.8672 5.438 57.3112 5.438C58.1512 5.438 58.5532 4.916 58.5172 3.872H59.9752C59.9872 4.76 59.7532 5.45 59.2732 5.942C58.7932 6.434 58.1332 6.68 57.2932 6.68ZM12.3676 43.396C11.1796 43.384 10.1116 43.108 9.16361 42.568C8.22761 42.016 7.48961 41.272 6.94961 40.336C6.42161 39.388 6.15761 38.32 6.15761 37.132V36.61C6.15761 35.47 6.42761 34.426 6.96761 33.478C7.51961 32.518 8.26361 31.762 9.19961 31.21C10.1476 30.646 11.1796 30.364 12.2956 30.364C13.4236 30.364 14.4556 30.646 15.3916 31.21C16.3276 31.762 17.0716 32.518 17.6236 33.478C18.1756 34.426 18.4516 35.47 18.4516 36.61V37.132C18.4516 38.32 18.1816 39.394 17.6416 40.354C17.1136 41.314 16.3876 42.064 15.4636 42.604C14.5396 43.144 13.5076 43.408 12.3676 43.396ZM12.3136 42.028C13.1896 42.028 13.9816 41.818 14.6896 41.398C15.3976 40.966 15.9556 40.378 16.3636 39.634C16.7716 38.89 16.9756 38.056 16.9756 37.132V36.61C16.9756 35.734 16.7656 34.924 16.3456 34.18C15.9256 33.424 15.3556 32.83 14.6356 32.398C13.9276 31.954 13.1416 31.732 12.2776 31.732C11.4256 31.732 10.6456 31.954 9.93761 32.398C9.22961 32.83 8.66561 33.424 8.24561 34.18C7.83761 34.924 7.63361 35.734 7.63361 36.61V37.132C7.63361 38.056 7.83761 38.89 8.24561 39.634C8.65361 40.378 9.21161 40.966 9.91961 41.398C10.6396 41.818 11.4376 42.028 12.3136 42.028ZM27.8642 42.496C26.6402 42.4 25.5962 42.082 24.7322 41.542C23.8802 40.99 23.2322 40.3 22.7882 39.472C22.3562 38.644 22.1402 37.774 22.1402 36.862C22.1402 35.95 22.3562 35.086 22.7882 34.27C23.2322 33.442 23.8802 32.758 24.7322 32.218C25.5962 31.666 26.6402 31.342 27.8642 31.246V30.166H29.2322V31.246C30.4562 31.342 31.5002 31.666 32.3642 32.218C33.2282 32.758 33.8762 33.442 34.3082 34.27C34.7522 35.086 34.9742 35.95 34.9742 36.862C34.9742 37.774 34.7522 38.644 34.3082 39.472C33.8762 40.3 33.2282 40.99 32.3642 41.542C31.5002 42.082 30.4562 42.4 29.2322 42.496V43.594H27.8642V42.496ZM27.8642 32.632C26.9402 32.716 26.1482 32.968 25.4882 33.388C24.8282 33.796 24.3302 34.306 23.9942 34.918C23.6702 35.53 23.5082 36.178 23.5082 36.862C23.5082 37.546 23.6702 38.194 23.9942 38.806C24.3302 39.418 24.8282 39.934 25.4882 40.354C26.1482 40.762 26.9402 41.014 27.8642 41.11V32.632ZM29.2322 41.11C30.1682 41.014 30.9662 40.762 31.6262 40.354C32.2862 39.934 32.7782 39.418 33.1022 38.806C33.4382 38.194 33.6062 37.546 33.6062 36.862C33.6062 36.178 33.4382 35.53 33.1022 34.918C32.7782 34.306 32.2862 33.796 31.6262 33.388C30.9662 32.968 30.1682 32.716 29.2322 32.632V41.11ZM49.42 43.018H47.944V34.864L48.034 33.676L47.332 34.612L41.194 41.992L40.15 43.018H39.394V30.634H40.852L40.834 40.066L40.816 40.57L41.068 40.12L48.79 30.472H49.42V43.018ZM60.0216 43.306C58.8696 43.306 57.8256 43.024 56.8896 42.46C55.9656 41.884 55.2396 41.11 54.7116 40.138C54.1836 39.166 53.9196 38.098 53.9196 36.934C53.9196 35.746 54.1956 34.642 54.7476 33.622C55.3116 32.602 56.0616 31.792 56.9976 31.192C57.9456 30.58 58.9776 30.274 60.0936 30.274C61.1856 30.274 62.1816 30.52 63.0816 31.012C63.9816 31.492 64.4196 32.368 64.3956 33.64H62.9736C63.0096 32.884 62.7096 32.362 62.0736 32.074C61.4496 31.786 60.7596 31.642 60.0036 31.642C59.1636 31.642 58.3896 31.894 57.6816 32.398C56.9736 32.89 56.4096 33.55 55.9896 34.378C55.5696 35.194 55.3596 36.064 55.3596 36.988C55.3596 37.876 55.5576 38.698 55.9536 39.454C56.3616 40.21 56.9196 40.816 57.6276 41.272C58.3356 41.716 59.1396 41.938 60.0396 41.938C60.8796 41.938 61.6536 41.746 62.3616 41.362C63.0816 40.978 63.6516 40.432 64.0716 39.724L65.2776 40.552C64.7136 41.464 63.9576 42.154 63.0096 42.622C62.0736 43.078 61.0776 43.306 60.0216 43.306Z" fill="white"/>
</svg>
