<svg width="40" height="40" viewBox="0 0 40 40" fill="none" xmlns="http://www.w3.org/2000/svg">
<rect width="40" height="40" fill="white"/>
<path d="M28.6727 24.876C28.6727 24.793 28.5897 24.793 28.5897 24.71C28.2576 24.0458 27.5104 23.2155 26.5141 22.3023C26.016 21.8872 25.7669 21.5551 25.6009 21.389C25.3518 21.0569 25.3518 20.8079 25.4348 20.4758C25.5179 20.2267 25.8499 19.8116 26.4311 19.0644C26.7632 18.6493 26.9292 18.4002 27.1783 18.1511C28.4236 16.4907 29.0048 15.4114 28.8387 14.9132L28.7557 14.8302C28.6727 14.7472 28.5897 14.6642 28.4236 14.6642C28.2576 14.5812 28.0085 14.5812 27.7595 14.6642H24.6046C24.5216 14.6642 24.5216 14.6642 24.3555 14.6642C24.2725 14.6642 24.1895 14.6642 24.1895 14.6642H24.1065H24.0234L23.9404 14.7472C23.8574 14.8302 23.8574 14.8302 23.8574 14.9132C23.5253 15.8265 23.1102 16.5737 22.6951 17.4039C22.446 17.819 22.1969 18.2342 21.9479 18.5663C21.6988 18.8984 21.5327 19.1474 21.3667 19.3135C21.2006 19.4795 21.0346 19.5625 20.9516 19.7286C20.8685 19.8116 20.7025 19.8946 20.7025 19.8116C20.6195 19.8116 20.5365 19.8116 20.5365 19.7286C20.4534 19.6456 20.3704 19.5625 20.2874 19.4795C20.2044 19.3965 20.2044 19.2304 20.1213 19.0644C20.1213 18.8983 20.1213 18.7323 20.1213 18.6493C20.1213 18.5663 20.1213 18.3172 20.1213 18.1511C20.1213 17.9021 20.1213 17.736 20.1213 17.653C20.1213 17.4039 20.1213 17.0719 20.1213 16.7398C20.1213 16.4077 20.1213 16.1586 20.1213 15.9925C20.1213 15.8265 20.1213 15.5774 20.1213 15.4114C20.1213 15.1623 20.1213 14.9963 20.1213 14.9132C20.1213 14.8302 20.0383 14.6642 20.0383 14.5812C19.9553 14.4981 19.8723 14.4151 19.7893 14.3321C19.7062 14.2491 19.5402 14.2491 19.4572 14.166C19.0421 14.083 18.5439 14 17.9628 14C16.6344 14 15.7211 14.083 15.389 14.2491C15.223 14.3321 15.057 14.4151 14.9739 14.5812C14.8079 14.7472 14.8079 14.8302 14.8909 14.8302C15.306 14.9133 15.6381 15.0793 15.8042 15.3284L15.8872 15.4944C15.9702 15.5774 15.9702 15.7435 16.0532 15.9925C16.1362 16.2416 16.1362 16.4907 16.1362 16.8228C16.1362 17.3209 16.1362 17.8191 16.1362 18.1511C16.1362 18.5663 16.0532 18.8153 16.0532 19.0644C16.0532 19.3135 15.9702 19.4795 15.8872 19.5625C15.8042 19.7286 15.8042 19.8116 15.7211 19.8116C15.7211 19.8116 15.7211 19.8946 15.6381 19.8946C15.5551 19.8946 15.4721 19.9776 15.306 19.9776C15.223 19.9776 15.057 19.8946 14.9739 19.8116C14.8079 19.7286 14.6418 19.5625 14.5588 19.3965C14.3928 19.2304 14.2267 18.9814 14.0607 18.6493C13.8946 18.3172 13.6456 17.9851 13.4795 17.487L13.3135 17.1549C13.2305 16.9888 13.0644 16.6567 12.8984 16.2416C12.7323 15.8265 12.5663 15.4944 12.4002 15.0793C12.3172 14.9133 12.2342 14.8302 12.1512 14.7472H12.0681C12.0681 14.7472 11.9851 14.6642 11.9021 14.6642C11.8191 14.6642 11.736 14.5812 11.653 14.5812H8.66419C8.33209 14.5812 8.16605 14.6642 8.08303 14.7472L8 14.8302C8 14.8302 8 14.9132 8 14.9963C8 15.0793 8.00001 15.1623 8.08303 15.3284C8.49814 16.3246 8.99628 17.3209 9.49442 18.3172C9.99255 19.2304 10.4907 20.0607 10.8228 20.6418C11.2379 21.223 11.57 21.8042 11.9851 22.3023C12.4002 22.8004 12.6493 23.1325 12.7323 23.2986C12.8984 23.4646 12.9814 23.5476 13.0644 23.6307L13.3135 23.8797C13.4795 24.0458 13.7286 24.2948 14.0607 24.5439C14.3928 24.793 14.8079 25.042 15.223 25.2911C15.6381 25.5402 16.1363 25.7062 16.6344 25.8723C17.2156 26.0383 17.7137 26.1213 18.2118 26.0383H19.4572C19.7062 26.0383 19.8723 25.9553 20.0383 25.7893L20.1213 25.7062C20.1213 25.6232 20.2044 25.6232 20.2044 25.5402C20.2044 25.4572 20.2044 25.3741 20.2044 25.2081C20.2044 24.876 20.2044 24.6269 20.2874 24.3779C20.3704 24.1288 20.3704 23.9628 20.4535 23.7967C20.5365 23.6307 20.6195 23.5476 20.7025 23.4646C20.7855 23.3816 20.8686 23.2986 20.8686 23.2986H20.9516C21.1176 23.2155 21.3667 23.2986 21.5327 23.4646C21.7818 23.6307 22.0309 23.8797 22.1969 24.1288C22.363 24.3779 22.612 24.6269 22.9441 24.959C23.2762 25.2911 23.5253 25.5402 23.6913 25.6232L23.9404 25.7893C24.1064 25.8723 24.2725 25.9553 24.5216 26.0383C24.7706 26.1213 24.9367 26.1213 25.1027 26.1213L27.9255 26.0383C28.1746 26.0383 28.4236 25.9553 28.5897 25.8723C28.7557 25.7893 28.8387 25.7062 28.8387 25.5402C28.8387 25.4572 28.8387 25.2911 28.8387 25.2081C28.6727 25.042 28.6727 24.959 28.6727 24.876Z" fill="#478ECC"/>
</svg>
