<svg width="64" height="64" viewBox="0 0 64 64" fill="none" xmlns="http://www.w3.org/2000/svg">
<path d="M53.4961 10.1952H50.3723C49.9059 10.1952 49.6107 10.4906 49.6107 10.8169H49.6105V20.9193C49.6105 21.3389 50.1079 21.5565 50.6208 21.5565C51.1182 21.5565 51.631 21.339 51.631 20.9193V17.3135H53.3719C55.4234 17.3135 57.0243 16.3343 57.0243 13.7854V13.6923C57.0243 11.1433 55.47 10.1952 53.4961 10.1952ZM55.0036 13.9409C55.0036 15.1532 54.382 15.7283 53.3718 15.7283H51.631V11.9671H53.3718C54.382 11.9671 55.0036 12.5422 55.0036 13.7544V13.9409Z" fill="#15499F"/>
<path d="M36.6335 14.1446C33.683 11.1941 29.7603 9.56921 25.5876 9.56921C21.415 9.56921 17.4923 11.1941 14.5418 14.1446C14.1857 14.5006 14.1857 15.0778 14.5418 15.4339C14.8978 15.7899 15.4751 15.7899 15.8311 15.4339C18.4372 12.828 21.902 11.3927 25.5875 11.3927C29.273 11.3927 32.738 12.828 35.344 15.4339C35.5221 15.6119 35.7555 15.7009 35.9887 15.7009C36.222 15.7009 36.4554 15.6119 36.6335 15.4339C36.9895 15.0779 36.9895 14.5006 36.6335 14.1446Z" fill="#15499F"/>
<path d="M32.8721 17.906C28.8554 13.8892 22.3198 13.8892 18.3032 17.906C17.947 18.262 17.947 18.8394 18.3032 19.1954C18.6592 19.5514 19.2365 19.5514 19.5925 19.1954C22.8983 15.8897 28.277 15.8897 31.5827 19.1954C31.7607 19.3734 31.994 19.4624 32.2274 19.4624C32.4606 19.4624 32.694 19.3734 32.8721 19.1954C33.2281 18.8394 33.2281 18.262 32.8721 17.906Z" fill="#15499F"/>
<path d="M29.1702 21.6076C27.1947 19.6321 23.9804 19.6321 22.0049 21.6076C21.6488 21.9636 21.6488 22.5408 22.0049 22.897C22.3609 23.2531 22.9383 23.253 23.2943 22.897C24.5589 21.6325 26.6164 21.6325 27.881 22.897C28.059 23.0751 28.2924 23.164 28.5256 23.164C28.7589 23.164 28.9922 23.075 29.1702 22.897C29.5264 22.5408 29.5264 21.9637 29.1702 21.6076Z" fill="#15499F"/>
<path d="M44.8651 39.3647C44.4706 39.1476 44.0813 38.9098 43.7083 38.6578L37.6777 34.5838C35.8475 33.3473 33.7125 32.6938 31.5038 32.6938H20.4349C17.4968 32.6938 14.7323 33.836 12.6506 35.9097C11.5806 36.9758 10.3616 37.8676 9.02747 38.5603C8.23848 38.9701 7.74835 39.7764 7.74835 40.6648C7.74835 41.9731 8.8126 43.0373 10.1208 43.0373H13.8946C14.3981 43.0373 14.8063 42.6291 14.8063 42.1256C14.8063 41.6221 14.3981 41.2138 13.8946 41.2138H10.1208C9.81809 41.2138 9.57172 40.9674 9.57172 40.6647C9.57172 40.4596 9.68509 40.2733 9.86772 40.1786C11.3666 39.4003 12.736 38.3986 13.9375 37.2015C15.6749 35.4705 17.9824 34.5172 20.4348 34.5172H22.9129V41.2138H19.8839C19.3804 41.2138 18.9722 41.6221 18.9722 42.1256C18.9722 42.6291 19.3804 43.0373 19.8839 43.0373H44.8836C45.6331 43.0373 46.2428 42.4276 46.2428 41.6781C46.2428 40.7183 45.7148 39.8318 44.8651 39.3647ZM24.7367 41.2139V34.5173H31.5039C33.3475 34.5173 35.1295 35.0628 36.6571 36.0948L42.6877 40.1688C43.1065 40.4517 43.5433 40.7187 43.9866 40.9624C44.1013 41.0256 44.1975 41.1123 44.2697 41.2139H24.7367Z" fill="#15499F"/>
<path d="M26.9956 44.4233H24.1794C23.6759 44.4233 23.2676 44.8316 23.2676 45.3351C23.2676 45.8386 23.6759 46.2468 24.1794 46.2468H26.9956C27.4991 46.2468 27.9074 45.8386 27.9074 45.3351C27.9074 44.8316 27.4991 44.4233 26.9956 44.4233Z" fill="#15499F"/>
<path d="M63.2134 43.6581L62.9254 43.1801C61.84 41.3789 60.0346 40.1107 57.9723 39.7005L55.6184 39.2323V27.3015H61.7099C62.9641 27.3015 63.9844 26.2811 63.9844 25.027V7.27071C63.9844 6.01646 62.964 4.99622 61.7099 4.99622H43.9536C42.6993 4.99622 41.6791 6.01659 41.6791 7.27071V14.0063C41.6791 14.5098 42.0872 14.9181 42.5908 14.9181C43.0945 14.9181 43.5026 14.5098 43.5026 14.0063V7.27071C43.5026 7.02196 43.705 6.81958 43.9537 6.81958H61.7101C61.9589 6.81958 62.1613 7.02196 62.1613 7.27071V25.0271C62.1613 25.2759 61.9589 25.4783 61.7101 25.4783H43.9536C43.7048 25.4783 43.5025 25.2759 43.5025 25.0271V19.9335C43.5025 19.43 43.0943 19.0218 42.5907 19.0218C42.0871 19.0218 41.679 19.43 41.679 19.9335V25.0271C41.679 26.2814 42.6993 27.3016 43.9535 27.3016H50.8611V38.2865L49.6511 38.0458C47.9811 37.7137 46.3529 36.7058 45.2734 35.9765L39.243 31.9026C36.9486 30.3527 34.2725 29.5335 31.5038 29.5335H20.435C16.7519 29.5335 13.2866 30.9651 10.6775 33.5645C9.02646 35.2093 6.94822 36.3312 4.66736 36.809L3.35836 37.0831C1.41237 37.4906 0 39.2296 0 41.2178V50.0478C0 51.101 0.621872 52.0582 1.58449 52.4859L5.21598 54.0999C5.4356 55.2483 5.98885 56.3449 6.8761 57.2321C8.05522 58.4113 9.60409 59.0009 11.1531 59.0009C12.7021 59.0009 14.2508 58.4113 15.4301 57.2321C16.1884 56.4738 16.7014 55.5621 16.9721 54.5963H47.2514C47.5221 55.5621 48.0352 56.4738 48.7936 57.2321C49.9361 58.3745 51.4548 59.0038 53.0705 59.0038C54.6862 59.0038 56.2052 58.3746 57.3476 57.2321C58.106 56.4738 58.619 55.5621 58.8896 54.5963H60.6193C62.4834 54.5963 64 53.0797 64 51.2155V46.4866C63.9997 45.4898 63.7278 44.5118 63.2134 43.6581ZM52.6845 27.3015H53.795V38.8697L52.6845 38.6488V27.3015ZM14.1406 55.9429C13.3426 56.7409 12.2816 57.1804 11.153 57.1804C10.0243 57.1804 8.96334 56.7409 8.16534 55.9429C6.88522 54.6628 6.60047 52.7592 7.30972 51.2009C7.31547 51.1884 7.32097 51.1758 7.32672 51.1633C7.34835 51.117 7.37122 51.0713 7.3946 51.0258C7.4056 51.0043 7.4166 50.9829 7.4281 50.9617C7.44922 50.9222 7.47122 50.8829 7.49372 50.8439C7.50922 50.817 7.5251 50.7904 7.54122 50.7639C7.5621 50.7295 7.58322 50.6953 7.60522 50.6614C7.62509 50.6308 7.6456 50.6005 7.66635 50.5704C7.68684 50.5405 7.70722 50.5105 7.72847 50.4812C7.75284 50.4475 7.77822 50.4145 7.80372 50.3815C7.82359 50.3558 7.84297 50.3298 7.86347 50.3044C7.89347 50.2673 7.92484 50.231 7.95609 50.1948C7.97397 50.1742 7.99109 50.153 8.00934 50.1327C8.05584 50.081 8.10372 50.0304 8.15297 49.9808C8.15722 49.9765 8.16109 49.972 8.16534 49.9678C8.17472 49.9584 8.18459 49.9497 8.19409 49.9404C8.23584 49.8994 8.27784 49.8589 8.32072 49.82C8.33184 49.8099 8.34359 49.8005 8.35484 49.7905C8.39759 49.7527 8.44059 49.715 8.48459 49.6792C8.48872 49.6758 8.49309 49.6727 8.49722 49.6693C10.0426 48.4187 12.2715 48.4202 13.8149 49.6743C13.8167 49.6758 13.8186 49.677 13.8204 49.6785C13.8676 49.7169 13.9137 49.7572 13.9596 49.7979C13.9678 49.8052 13.9763 49.812 13.9844 49.8194C14.0374 49.8673 14.0894 49.9167 14.1404 49.9677C14.1954 50.0227 14.2484 50.0793 14.2999 50.1367C14.3226 50.1619 14.3439 50.1878 14.3658 50.2134C14.3926 50.2447 14.4194 50.276 14.4452 50.3079C14.4741 50.3438 14.5019 50.3803 14.5294 50.4168C14.5449 50.4372 14.5603 50.4577 14.5753 50.4783C14.6087 50.5243 14.6412 50.5708 14.6726 50.6179C14.6779 50.6259 14.6832 50.634 14.6884 50.642C15.7609 52.2802 15.5784 54.5049 14.1406 55.9429ZM56.058 55.9429C55.2599 56.7409 54.1989 57.1804 53.0703 57.1804C51.9417 57.1804 50.8808 56.7409 50.0828 55.9429C48.6447 54.5049 48.4622 52.2798 49.5348 50.6418C49.5399 50.6339 49.5451 50.626 49.5503 50.6183C49.5817 50.571 49.6143 50.5244 49.6478 50.4782C49.6627 50.4577 49.6779 50.4374 49.6933 50.4173C49.7209 50.3805 49.7489 50.3439 49.7781 50.3078C49.8037 50.2762 49.8302 50.2452 49.8568 50.2142C49.8789 50.1883 49.9006 50.162 49.9234 50.1367C49.9749 50.0793 50.0279 50.0228 50.0829 49.9678C50.8809 49.1698 51.9418 48.7303 53.0704 48.7303C54.199 48.7303 55.26 49.1698 56.058 49.9678C56.113 50.0228 56.166 50.0794 56.2175 50.1368C56.2403 50.162 56.2617 50.188 56.2837 50.2138C56.3104 50.2449 56.3372 50.2762 56.3628 50.3079C56.3918 50.3439 56.4197 50.3804 56.4473 50.417C56.4627 50.4374 56.478 50.4578 56.493 50.4784C56.5264 50.5245 56.559 50.5709 56.5903 50.618C56.5957 50.626 56.6009 50.634 56.6062 50.642C57.6784 52.28 57.4959 54.505 56.058 55.9429ZM62.1766 51.2155H62.1764C62.1764 52.0743 61.4778 52.7729 60.619 52.7729H59.118C59.0823 51.4505 58.6155 50.1889 57.7755 49.1545C57.7699 49.1475 57.7645 49.1403 57.7588 49.1333C57.7068 49.0699 57.6529 49.0078 57.5981 48.946C57.5841 48.9303 57.5709 48.914 57.5568 48.8983C57.4988 48.8344 57.4388 48.7718 57.3778 48.71C57.3674 48.6995 57.3579 48.6885 57.3474 48.6782C56.5619 47.8928 55.5985 47.3499 54.5482 47.0874C54.0707 46.968 53.5753 46.9067 53.0703 46.9067C52.6664 46.9067 52.2685 46.946 51.881 47.0228C50.7187 47.2533 49.6502 47.8214 48.7933 48.6782C48.7831 48.6884 48.7737 48.6992 48.7636 48.7095C48.7023 48.7717 48.6421 48.8344 48.5839 48.8985C48.5702 48.9137 48.5574 48.9294 48.5439 48.9447C48.4887 49.0069 48.4342 49.0697 48.3818 49.1337C48.3766 49.14 48.3717 49.1467 48.3664 49.1532C47.5258 50.1877 47.0586 51.45 47.0227 52.773H17.2006C17.1647 51.4484 16.6964 50.1845 15.8537 49.1492C15.8498 49.1443 15.8461 49.1394 15.8422 49.1345C15.7872 49.0673 15.7301 49.0014 15.6719 48.9362C15.6612 48.9242 15.6512 48.9118 15.6403 48.8998C15.5722 48.8247 15.5022 48.7507 15.4298 48.6783C15.1351 48.3835 14.8171 48.1255 14.4819 47.9044C13.4762 47.2412 12.3146 46.9096 11.153 46.9096C9.60409 46.9096 8.05509 47.4992 6.87597 48.6783C6.8086 48.7457 6.74347 48.8148 6.67972 48.8848C6.66085 48.9055 6.64272 48.9267 6.6241 48.9475C6.5791 48.9984 6.53485 49.0498 6.49172 49.1018C6.4726 49.1249 6.45347 49.1482 6.43472 49.1717C6.3901 49.2273 6.3466 49.2835 6.3041 49.3404C6.29085 49.3582 6.27723 49.3755 6.26435 49.3934C6.1501 49.5498 6.0441 49.711 5.9461 49.8764C5.94335 49.881 5.94073 49.8858 5.93798 49.8904C5.8901 49.9718 5.84423 50.0543 5.80035 50.1377C5.7991 50.14 5.79785 50.1425 5.79648 50.1449C5.4786 50.7498 5.26485 51.404 5.16685 52.0827L2.32524 50.8197C2.02049 50.6842 1.82362 50.3812 1.82362 50.0478V41.2178C1.82362 40.0877 2.62649 39.0993 3.73261 38.8676L5.0416 38.5935C7.6691 38.0431 10.0631 36.7507 11.9648 34.8561C14.2298 32.5995 17.2381 31.3567 20.4354 31.3567H31.5041C33.9077 31.3567 36.2309 32.068 38.2226 33.4134L44.2531 37.4872C45.4632 38.3048 47.3026 39.4376 49.2957 39.8341L57.6169 41.4888C59.1771 41.7992 60.5428 42.7586 61.3639 44.1211L61.6519 44.5991C61.9953 45.1687 62.1766 45.8214 62.1766 46.4866V51.2155Z" fill="#15499F"/>
<path d="M13.1103 50.998C12.5873 50.4751 11.8923 50.1873 11.1529 50.1873C10.4136 50.1873 9.71844 50.4753 9.1957 50.998C8.67295 51.5208 8.38495 52.2159 8.38495 52.9552C8.38495 53.6946 8.67295 54.3897 9.1957 54.9125C9.71844 55.4352 10.4136 55.7232 11.1531 55.7232C11.8924 55.7232 12.5876 55.4354 13.1103 54.9125C14.1896 53.8332 14.1896 52.0772 13.1103 50.998ZM11.8208 53.6231C11.6424 53.8015 11.4052 53.8997 11.1529 53.8997C10.9006 53.8997 10.6634 53.8015 10.4851 53.623C10.3067 53.4446 10.2083 53.2075 10.2083 52.9551C10.2083 52.7027 10.3066 52.4656 10.4851 52.2872C10.6634 52.1089 10.9006 52.0105 11.1529 52.0105C11.4052 52.0105 11.6424 52.1087 11.8208 52.2872C12.1891 52.6556 12.1891 53.2549 11.8208 53.6231Z" fill="#15499F"/>
<path d="M55.0277 50.9981C54.5049 50.4753 53.8098 50.1873 53.0703 50.1873C52.3309 50.1873 51.6359 50.4751 51.1129 50.998C50.0338 52.0772 50.0338 53.8332 51.1129 54.9125C51.6358 55.4354 52.3309 55.7232 53.0703 55.7232C53.8098 55.7232 54.5048 55.4354 55.0275 54.9126C55.5504 54.3899 55.8383 53.6947 55.8383 52.9554C55.8383 52.216 55.5504 51.5209 55.0277 50.9981ZM53.7382 53.6232C53.5598 53.8016 53.3227 53.8999 53.0703 53.8999C52.818 53.8999 52.5808 53.8016 52.4024 53.6232C52.0342 53.255 52.0342 52.6557 52.4024 52.2875C52.5808 52.1091 52.818 52.0108 53.0703 52.0108C53.3227 52.0108 53.5598 52.109 53.7383 52.2875C53.9167 52.4659 54.0149 52.703 54.0149 52.9554C54.0149 53.2075 53.9168 53.4447 53.7382 53.6232Z" fill="#15499F"/>
</svg>
